<svg xmlns="http://www.w3.org/2000/svg" width="31.413" height="27.015" viewBox="0 0 31.413 27.015">
  <g id="Wiadomości_od_strony" data-name="Wiadomości od strony" transform="translate(1 1)">
    <g id="Group_520" data-name="Group 520">
      <path id="Path_1057" data-name="Path 1057" d="M36.851,16.792V29.305a2.042,2.042,0,0,1-2.042,2.042H25.921a.163.163,0,0,0-.106.038l-5.446,4.272a.239.239,0,0,1-.4-.178l-.043-3.967a.167.167,0,0,0-.167-.165H16.812a2.042,2.042,0,0,1-2.042-2.042V16.792a2.042,2.042,0,0,1,2.042-2.042h18a2.042,2.042,0,0,1,2.042,2.042Z" transform="translate(-14.77 -14.75)" fill="none" stroke="#000" stroke-linejoin="round" stroke-width="2"/>
      <path id="Path_1058" data-name="Path 1058" d="M227.23,138.5l5.347-.012a.223.223,0,0,1,.144.051l4.5,3.472a.2.2,0,0,0,.33-.148l.035-3.151a.226.226,0,0,1,.226-.224H240.1a1.785,1.785,0,0,0,1.785-1.785V126.248a1.558,1.558,0,0,0-1.558-1.558h-.492" transform="translate(-212.476 -117.055)" fill="none" stroke="#000" stroke-linecap="round" stroke-linejoin="round" stroke-width="2"/>
    </g>
    <path id="Path_1059" data-name="Path 1059" d="M103.15,108.67h9.264m-9.264,4.247h5.285" transform="translate(-97.013 -102.148)" fill="#fff" stroke="#000" stroke-linecap="round" stroke-linejoin="round" stroke-width="2"/>
  </g>
</svg>
