<svg xmlns="http://www.w3.org/2000/svg" xmlns:xlink="http://www.w3.org/1999/xlink" viewBox="0 0 984 231">
  <defs>
    <style>
      .cls-1 {
        isolation: isolate;
      }

      .cls-2 {
        fill: url(#linear-gradient);
      }

      .cls-3 {
        opacity: 0.51;
        fill: url(#linear-gradient-2);
      }

      .cls-10, .cls-11, .cls-12, .cls-13, .cls-14, .cls-15, .cls-16, .cls-17, .cls-18, .cls-19, .cls-20, .cls-3, .cls-4, .cls-5, .cls-6, .cls-7, .cls-8, .cls-9 {
        mix-blend-mode: overlay;
      }

      .cls-4 {
        opacity: 0.65;
        fill: url(#linear-gradient-3);
      }

      .cls-12, .cls-16, .cls-5 {
        fill: none;
        stroke: #000;
        stroke-linecap: round;
        stroke-miterlimit: 10;
      }

      .cls-5 {
        stroke-width: 2.4px;
        opacity: 0.22;
      }

      .cls-6 {
        opacity: 0.15;
      }

      .cls-7 {
        fill: url(#linear-gradient-4);
      }

      .cls-8 {
        opacity: 0.26;
      }

      .cls-9 {
        opacity: 0.24;
      }

      .cls-10 {
        fill: url(#linear-gradient-5);
      }

      .cls-11 {
        opacity: 0.37;
        fill: url(#linear-gradient-6);
      }

      .cls-12 {
        stroke-width: 3.1px;
      }

      .cls-12, .cls-13, .cls-16 {
        opacity: 0.2;
      }

      .cls-14 {
        fill: url(#linear-gradient-7);
      }

      .cls-15 {
        opacity: 0.32;
        fill: url(#linear-gradient-8);
      }

      .cls-16 {
        stroke-width: 3px;
      }

      .cls-17 {
        opacity: 0.42;
        fill: url(#linear-gradient-9);
      }

      .cls-18 {
        fill: url(#linear-gradient-10);
      }

      .cls-19 {
        opacity: 0.3;
      }

      .cls-20 {
        opacity: 0.25;
      }
    </style>
    <linearGradient id="linear-gradient" x1="-2006.19" y1="2615.44" x2="-2006.48" y2="2613.76" gradientTransform="matrix(984, 0, 0, -231, 1974678.6, 604148)" gradientUnits="userSpaceOnUse">
      <stop offset="0" stop-color="#5e7dff"/>
      <stop offset="0.86" stop-color="#3c5bdf"/>
    </linearGradient>
    <linearGradient id="linear-gradient-2" x1="885.31" y1="106.55" x2="885.31" y2="222.7" gradientTransform="matrix(1, 0, 0, 1, -0.24, 1.74)" gradientUnits="userSpaceOnUse">
      <stop offset="0.01" stop-color="#333" stop-opacity="0.15"/>
      <stop offset="0.47" stop-color="#242424" stop-opacity="0.66"/>
      <stop offset="1" stop-color="#1a1a1a"/>
    </linearGradient>
    <linearGradient id="linear-gradient-3" x1="784.24" y1="145.66" x2="845.05" y2="294.29" gradientTransform="matrix(1, 0, 0, 1, -0.24, 1.74)" gradientUnits="userSpaceOnUse">
      <stop offset="0" stop-color="#999"/>
      <stop offset="0.91" stop-color="#212121"/>
    </linearGradient>
    <linearGradient id="linear-gradient-4" x1="797.64" y1="144.28" x2="881.21" y2="144.28" gradientUnits="userSpaceOnUse">
      <stop offset="0" stop-color="#999"/>
      <stop offset="0.46" stop-color="gray"/>
      <stop offset="1" stop-color="#666"/>
    </linearGradient>
    <linearGradient id="linear-gradient-5" x1="740.65" y1="136.54" x2="832.81" y2="136.54" xlink:href="#linear-gradient-4"/>
    <linearGradient id="linear-gradient-6" x1="789.14" y1="179.19" x2="809.49" y2="173.46" gradientTransform="translate(-15.14 201.61) rotate(-18.48)" gradientUnits="userSpaceOnUse">
      <stop offset="0.01" stop-color="#333" stop-opacity="0.5"/>
      <stop offset="1" stop-color="#1a1a1a"/>
    </linearGradient>
    <linearGradient id="linear-gradient-7" x1="866.36" y1="57.15" x2="935.41" y2="57.15" gradientTransform="translate(59.06 -276.68) rotate(17.33)" gradientUnits="userSpaceOnUse">
      <stop offset="0" stop-color="#999"/>
      <stop offset="0.18" stop-color="#888"/>
      <stop offset="0.43" stop-color="#767676"/>
      <stop offset="0.7" stop-color="#6b6b6b"/>
      <stop offset="1" stop-color="#676767"/>
    </linearGradient>
    <linearGradient id="linear-gradient-8" x1="903.82" y1="31.32" x2="918.27" y2="31.32" gradientTransform="translate(59.06 -276.68) rotate(17.33)" xlink:href="#linear-gradient-6"/>
    <linearGradient id="linear-gradient-9" x1="726.97" y1="78.94" x2="754.42" y2="39.14" gradientTransform="matrix(1, 0.02, -0.08, 1, 2.54, -13.31)" xlink:href="#linear-gradient-6"/>
    <linearGradient id="linear-gradient-10" x1="722.73" y1="46.32" x2="788.76" y2="46.32" gradientTransform="translate(15.22 191.61) rotate(-14.69)" gradientUnits="userSpaceOnUse">
      <stop offset="0" stop-color="#999"/>
      <stop offset="0.11" stop-color="#909090"/>
      <stop offset="0.43" stop-color="#797979"/>
      <stop offset="0.73" stop-color="#6c6c6c"/>
      <stop offset="1" stop-color="#676767"/>
    </linearGradient>
  </defs>
  <title>Header_Opracowania</title>
  <g class="cls-1">
    <g id="Layer_1" data-name="Layer 1">
      <rect id="Background" class="cls-2" width="984" height="231" rx="24"/>
      <g id="Folder">
        <path class="cls-3" d="M855.11,167.21c1.14,2.85,8.71,24.62,19.63,56.5a10.8,10.8,0,0,0,3.11,5.18,8.77,8.77,0,0,0,2.48,1.46h0a5.19,5.19,0,0,0,4.91-3.5l30.29-84a2.53,2.53,0,0,0-2.26-3.42L875,139.5a2.42,2.42,0,0,0-2.25,1.68l-1.47,4.27-12.94,0-2.06,14.06Z"/>
        <path class="cls-4" d="M880.37,230.73,757.51,231l-22.58-64a3.49,3.49,0,0,1,3.11-4.74L849,162a5.68,5.68,0,0,1,3.4,1.12,6.61,6.61,0,0,1,2.18,3c1.14,2.85,9.25,26.12,20.17,58a10.75,10.75,0,0,0,3.11,5.18A8.91,8.91,0,0,0,880.37,230.73Z"/>
      </g>
      <path id="Icon2" class="cls-5" d="M828.34,90.51l-8.08-10.68A2.67,2.67,0,0,1,820.7,76h0a2.63,2.63,0,0,1,3.81.54h0L834.27,89a4.6,4.6,0,0,1-.74,6.48h0a4.79,4.79,0,0,1-6.62-.84l-1.28-1.69-9.54-12.77a6.25,6.25,0,0,1,1.34-8.68h0a6.31,6.31,0,0,1,8.68,1.17l8.35,11"/>
      <g id="Particles">
        <circle class="cls-6" cx="776.22" cy="87.23" r="5.5"/>
        <circle class="cls-6" cx="805.27" cy="28.37" r="4.19"/>
        <circle class="cls-6" cx="883.56" cy="110.17" r="4.19"/>
      </g>
      <g id="Photo">
        <path class="cls-7" d="M848.65,162c4.59-.21,6.12,4.1,6.27,4.91,1.87-12.35,3.59-23.24,5.46-35.59a3.17,3.17,0,0,0-2.68-3.59l-41.42-6a3.16,3.16,0,0,0-3.59,2.68l-5.46,37.42Z"/>
        <path class="cls-8" d="M848.65,162a6.1,6.1,0,0,1,3.41.83,7.38,7.38,0,0,1,2.86,4.08c.63-3.74,1-6.41,1.57-10.14l-9.09-9-18.55,11.12-5.15-6.31-16.2,7.74-.22,1.71Z"/>
        <circle class="cls-9" cx="826.12" cy="137.17" r="5.14"/>
      </g>
      <g id="Document">
        <path class="cls-10" d="M757.68,162h49.55l4.35-30.11L808.1,121.4l-20.69-10.32-37.64,12.61a4.59,4.59,0,0,0-2.89,5.78Z"/>
        <path class="cls-11" d="M796,125.46l12.15-4.06-20.69-10.32,4.06,12.14A3.54,3.54,0,0,0,796,125.46Z"/>
        <path class="cls-8" d="M776,143.21l3.34-1.13-11.09-11.93-2.77.93-1.68,16.2,3.34-1.11.27-2.61,6.81-2.27Zm-8.23-3.15.54-5.14,3.52,3.79Z"/>
        <line class="cls-12" x1="770.22" y1="158.7" x2="800.42" y2="148.6"/>
        <path class="cls-13" d="M784.15,161.54l18.1-6.16a1.5,1.5,0,0,1,1,2.85l-9.86,3.41Z"/>
      </g>
      <g id="Paper">
        <path class="cls-14" d="M903.82,79.72c-12.07-3.49-24.36-6.58-35.84-11.78-2.25-1-2.76-2.5-1.7-4.63,8.07-16.09,14.6-31.1,17.89-48.89.43-2.34,1.6-3,3.83-2.54,8.82,1.63,17.41,3.73,26.26,5,3.54,4.88,7.16,9.69,10.58,14.67-2.83,16.85-9,31.23-16.69,46.29C907,80.16,906.19,80.41,903.82,79.72Z"/>
        <path class="cls-15" d="M915.62,29.66c2.93.83,6.23,1,9.21,1.85-3.41-5-7-9.79-10.57-14.63a55.26,55.26,0,0,0-1,9.53C913.35,28.27,913.83,29.16,915.62,29.66Z"/>
        <g>
          <path class="cls-16" d="M890.15,36.78c6.8,1.95,13.62,3.78,20.51,5.38"/>
          <path class="cls-16" d="M888,44.17c6,2,12.11,3.75,18.27,5.32"/>
          <path class="cls-16" d="M884.62,51.14c6.82,2.41,13.76,4.39,20.72,6.35"/>
        </g>
      </g>
      <g id="Note">
        <path class="cls-17" d="M739.51,67.13c-4.56-10.75-10.7-21.85-14.2-32.33l-.83,0c.39,12.8-.44,25.41,1.42,38.06,11.94-1.16,24.53-3.38,36.39-4.55-.86-2.14-1.76-3.92-2.53-5.86C748.33,64.81,748.13,64.41,739.51,67.13Z"/>
        <path class="cls-18" d="M760.87,26.11c-1.9.57-3.82,1.08-5.75,1.56l.85,2.47a1.07,1.07,0,0,1-.66,1.34l-.07,0a1.06,1.06,0,0,1-1.27-.68l-.9-2.65c-2.57.6-5.15,1.16-7.73,1.7l.74,2.17a1.05,1.05,0,0,1-.65,1.34l-.08,0a1,1,0,0,1-1.26-.68l-.82-2.42c-2.6.54-5.19,1.09-7.77,1.67l.8,2.35a1.05,1.05,0,0,1-.66,1.34l-.07,0a1,1,0,0,1-1.26-.68l-.88-2.56c-2.74.65-5.48,1.35-8.19,2.17,4,11.15,9,21.7,14.27,32.52C753,62.79,764,62.67,776.22,58.5,771.61,47.43,765.17,37.3,760.87,26.11Z"/>
        <g>
          <path class="cls-19" d="M735.57,35.68a1,1,0,0,1-1.26-.68l-1.69-4.94a1.05,1.05,0,0,1,2-.68l1.69,4.94a1.05,1.05,0,0,1-.66,1.34Z"/>
          <path class="cls-19" d="M745.35,33.4a1,1,0,0,1-1.26-.68l-1.69-4.94a1.06,1.06,0,0,1,2-.68L746.08,32a1.05,1.05,0,0,1-.65,1.34Z"/>
          <path class="cls-19" d="M755.24,31.5a1.06,1.06,0,0,1-1.27-.68l-1.68-4.94a1,1,0,0,1,.65-1.33,1.06,1.06,0,0,1,1.34.65L756,30.14a1.07,1.07,0,0,1-.66,1.34Z"/>
        </g>
      </g>
      <g id="Icon" class="cls-20">
        <path d="M750.94,53.48a1.55,1.55,0,0,1-1.15-.16,1.51,1.51,0,0,1-.54-2.06l4.88-8.35a1.51,1.51,0,1,1,2.6,1.52l-4.88,8.35A1.5,1.5,0,0,1,750.94,53.48Z"/>
        <path d="M750.94,53.48a1.55,1.55,0,0,1-1.15-.16l-4-2.34a1.51,1.51,0,0,1,1.52-2.6l4,2.34a1.51,1.51,0,0,1-.37,2.76Z"/>
      </g>
    </g>
  </g>
</svg>
