<svg xmlns="http://www.w3.org/2000/svg" xmlns:xlink="http://www.w3.org/1999/xlink" viewBox="0 0 984 231.05">
  <defs>
    <style>
      .cls-1 {
        isolation: isolate;
      }

      .cls-2 {
        fill: url(#linear-gradient);
      }

      .cls-3, .cls-4 {
        opacity: 0.75;
      }

      .cls-10, .cls-11, .cls-12, .cls-14, .cls-15, .cls-16, .cls-17, .cls-18, .cls-19, .cls-20, .cls-22, .cls-23, .cls-24, .cls-25, .cls-26, .cls-27, .cls-29, .cls-3, .cls-30, .cls-31, .cls-4, .cls-5, .cls-6, .cls-7, .cls-8, .cls-9 {
        mix-blend-mode: overlay;
      }

      .cls-3 {
        fill: url(#linear-gradient-2);
      }

      .cls-4 {
        fill: url(#linear-gradient-3);
      }

      .cls-5 {
        opacity: 0.37;
        fill: url(#linear-gradient-4);
      }

      .cls-12, .cls-6, .cls-7, .cls-8 {
        opacity: 0.3;
      }

      .cls-6 {
        fill: url(#linear-gradient-5);
      }

      .cls-8 {
        fill: url(#linear-gradient-6);
      }

      .cls-11, .cls-9 {
        opacity: 0.29;
      }

      .cls-10 {
        opacity: 0.13;
      }

      .cls-11 {
        fill: url(#linear-gradient-7);
      }

      .cls-13 {
        fill: url(#linear-gradient-8);
      }

      .cls-14, .cls-15 {
        opacity: 0.35;
      }

      .cls-14 {
        fill: url(#linear-gradient-10);
      }

      .cls-15 {
        fill: url(#linear-gradient-11);
      }

      .cls-16 {
        opacity: 0.23;
        fill: url(#linear-gradient-12);
      }

      .cls-17 {
        opacity: 0.22;
        fill: url(#linear-gradient-13);
      }

      .cls-18 {
        fill: #fff;
        opacity: 0.16;
      }

      .cls-19 {
        opacity: 0.15;
      }

      .cls-20, .cls-23 {
        opacity: 0.2;
      }

      .cls-21 {
        fill: none;
        stroke: #000;
        stroke-linecap: round;
        stroke-miterlimit: 10;
        stroke-width: 3.7px;
      }

      .cls-22 {
        opacity: 0.09;
        fill: url(#linear-gradient-14);
      }

      .cls-24, .cls-31 {
        opacity: 0.1;
      }

      .cls-24 {
        fill: url(#linear-gradient-15);
      }

      .cls-25 {
        opacity: 0.18;
      }

      .cls-26 {
        opacity: 0.08;
        fill: url(#linear-gradient-16);
      }

      .cls-27 {
        opacity: 0.19;
      }

      .cls-28 {
        opacity: 0.9;
        fill: url(#linear-gradient-17);
      }

      .cls-29 {
        opacity: 0.3;
        fill: url(#linear-gradient-18);
      }

      .cls-30 {
        opacity: 0.28;
        fill: url(#linear-gradient-19);
      }

      .cls-31 {
        fill: url(#linear-gradient-20);
      }
    </style>
    <linearGradient id="linear-gradient" x1="-2006.48" y1="2615.14" x2="-2006.77" y2="2613.47" gradientTransform="matrix(984, 0, 0, -231, 1974967.72, 604079.76)" gradientUnits="userSpaceOnUse">
      <stop offset="0" stop-color="#5e7dff"/>
      <stop offset="0.86" stop-color="#3c5bdf"/>
    </linearGradient>
    <linearGradient id="linear-gradient-2" x1="660.62" y1="81.83" x2="668.62" y2="229.83" gradientTransform="matrix(1, 0, 0.04, 1, -8.97, 0)" gradientUnits="userSpaceOnUse">
      <stop offset="0.14" stop-color="#b3b3b3"/>
      <stop offset="0.34" stop-color="#afafaf"/>
      <stop offset="0.53" stop-color="#a4a4a4"/>
      <stop offset="0.72" stop-color="#909090"/>
      <stop offset="0.91" stop-color="#757575"/>
      <stop offset="1" stop-color="#666"/>
    </linearGradient>
    <linearGradient id="linear-gradient-3" x1="726.21" y1="78.28" x2="734.21" y2="226.28" xlink:href="#linear-gradient-2"/>
    <linearGradient id="linear-gradient-4" x1="755.26" y1="205.52" x2="756.06" y2="233.52" gradientTransform="matrix(1, 0, 0.04, 1, -8.97, 0)" gradientUnits="userSpaceOnUse">
      <stop offset="0.05" stop-color="#b3b3b3"/>
      <stop offset="0.21" stop-color="#aeaeae"/>
      <stop offset="0.38" stop-color="#a1a1a1"/>
      <stop offset="0.57" stop-color="#8a8a8a"/>
      <stop offset="0.76" stop-color="#6a6a6a"/>
      <stop offset="0.91" stop-color="#4d4d4d"/>
    </linearGradient>
    <linearGradient id="linear-gradient-5" x1="636.4" y1="118.71" x2="666.2" y2="92.31" gradientTransform="matrix(1, 0, 0.04, 1, -8.97, 0)" gradientUnits="userSpaceOnUse">
      <stop offset="0.14" stop-color="#4d4d4d"/>
      <stop offset="0.31" stop-color="#474747"/>
      <stop offset="0.54" stop-color="#353535"/>
      <stop offset="0.82" stop-color="#181818"/>
      <stop offset="1"/>
    </linearGradient>
    <linearGradient id="linear-gradient-6" x1="862.39" y1="133.25" x2="882.19" y2="149" gradientTransform="translate(-20.59 -44.87)" gradientUnits="userSpaceOnUse">
      <stop offset="0" stop-color="#ccc"/>
      <stop offset="0.12" stop-color="#c7c7c7"/>
      <stop offset="0.28" stop-color="#b7b7b7"/>
      <stop offset="0.45" stop-color="#9e9e9e"/>
      <stop offset="0.63" stop-color="#7a7a7a"/>
      <stop offset="0.82" stop-color="#4d4d4d"/>
      <stop offset="1" stop-color="#1a1a1a"/>
    </linearGradient>
    <linearGradient id="linear-gradient-7" x1="817.43" y1="102.27" x2="843.53" y2="128.38" gradientUnits="userSpaceOnUse">
      <stop offset="0"/>
      <stop offset="0.42" stop-color="#0d0d0d"/>
      <stop offset="1" stop-color="#1a1a1a"/>
    </linearGradient>
    <linearGradient id="linear-gradient-8" x1="894.01" y1="250.13" x2="926.38" y2="146.5" gradientTransform="translate(-20.99)" gradientUnits="userSpaceOnUse">
      <stop offset="0.08" stop-color="#4d4d4d"/>
      <stop offset="0.19" stop-color="#474747"/>
      <stop offset="0.35" stop-color="#353535"/>
      <stop offset="0.53" stop-color="#181818"/>
      <stop offset="0.65"/>
      <stop offset="1" stop-color="gray"/>
    </linearGradient>
    <linearGradient id="linear-gradient-10" x1="895.59" y1="222.37" x2="895.59" y2="147.12" gradientUnits="userSpaceOnUse">
      <stop offset="0"/>
      <stop offset="0.16" stop-color="#070707"/>
      <stop offset="0.4" stop-color="#1b1b1b"/>
      <stop offset="0.69" stop-color="#3a3a3a"/>
      <stop offset="1" stop-color="#666"/>
    </linearGradient>
    <linearGradient id="linear-gradient-11" x1="871.45" y1="230.98" x2="871.45" y2="230.89" xlink:href="#linear-gradient-10"/>
    <linearGradient id="linear-gradient-12" x1="841.49" y1="171.53" x2="905.76" y2="216.33" gradientUnits="userSpaceOnUse">
      <stop offset="0.01" stop-color="#4d4d4d"/>
      <stop offset="0.2" stop-color="#707070"/>
      <stop offset="0.58" stop-color="#afafaf"/>
      <stop offset="0.86" stop-color="#d7d7d7"/>
      <stop offset="1" stop-color="#e6e6e6"/>
    </linearGradient>
    <linearGradient id="linear-gradient-13" x1="859.7" y1="206.5" x2="885.35" y2="180.84" gradientUnits="userSpaceOnUse">
      <stop offset="0"/>
      <stop offset="1" stop-opacity="0.7"/>
    </linearGradient>
    <linearGradient id="linear-gradient-14" x1="709.66" y1="165.45" x2="709.66" y2="138.17" gradientUnits="userSpaceOnUse">
      <stop offset="0"/>
      <stop offset="0.29" stop-color="#040404"/>
      <stop offset="0.56" stop-color="#0f0f0f"/>
      <stop offset="0.83" stop-color="#232323"/>
      <stop offset="1" stop-color="#333"/>
    </linearGradient>
    <linearGradient id="linear-gradient-15" x1="706.23" y1="102.34" x2="706.23" y2="129.25" gradientTransform="matrix(1, 0, 0.08, 1, -8, 0)" xlink:href="#linear-gradient-14"/>
    <linearGradient id="linear-gradient-16" x1="706.23" y1="199.21" x2="706.23" y2="172.75" gradientTransform="matrix(1, 0, 0.08, 1, -8, 0)" gradientUnits="userSpaceOnUse">
      <stop offset="0"/>
      <stop offset="0.26" stop-color="#070707"/>
      <stop offset="0.65" stop-color="#1b1b1b"/>
      <stop offset="1" stop-color="#333"/>
    </linearGradient>
    <linearGradient id="linear-gradient-17" x1="715.65" y1="140.54" x2="727.37" y2="119.79" gradientTransform="matrix(0.99, 0.17, -0.17, 0.99, 32.46, -122.58)" gradientUnits="userSpaceOnUse">
      <stop offset="0" stop-color="#4863f2"/>
      <stop offset="0.29" stop-color="#4863f2" stop-opacity="0.99"/>
      <stop offset="0.51" stop-color="#4964f2" stop-opacity="0.95"/>
      <stop offset="0.7" stop-color="#4a66f3" stop-opacity="0.88"/>
      <stop offset="0.87" stop-color="#4c68f3" stop-opacity="0.79"/>
      <stop offset="0.99" stop-color="#4d6af4" stop-opacity="0.7"/>
    </linearGradient>
    <linearGradient id="linear-gradient-18" x1="1185.41" y1="-144.61" x2="1150.39" y2="-109.29" gradientTransform="translate(1817.1 225.55) rotate(-172.46)" gradientUnits="userSpaceOnUse">
      <stop offset="0" stop-color="#4d4d4d"/>
      <stop offset="0.26" stop-color="#4a4a4a"/>
      <stop offset="0.48" stop-color="#3f3f3f" stop-opacity="0.98"/>
      <stop offset="0.68" stop-color="#2e2e2e" stop-opacity="0.96"/>
      <stop offset="0.87" stop-color="#161616" stop-opacity="0.93"/>
      <stop offset="1" stop-opacity="0.9"/>
    </linearGradient>
    <linearGradient id="linear-gradient-19" x1="1109.96" y1="-81.81" x2="1158.49" y2="-100.86" gradientTransform="translate(1817.1 225.55) rotate(-172.46)" gradientUnits="userSpaceOnUse">
      <stop offset="0"/>
      <stop offset="0.15" stop-color="#090909" stop-opacity="0.99"/>
      <stop offset="0.37" stop-color="#212121" stop-opacity="0.95"/>
      <stop offset="0.63" stop-color="#494949" stop-opacity="0.89"/>
      <stop offset="0.92" stop-color="#7f7f7f" stop-opacity="0.8"/>
      <stop offset="0.92" stop-color="gray" stop-opacity="0.8"/>
    </linearGradient>
    <linearGradient id="linear-gradient-20" x1="671.61" y1="180.62" x2="698.51" y2="166.62" gradientUnits="userSpaceOnUse">
      <stop offset="0"/>
      <stop offset="0.21" stop-color="#050505"/>
      <stop offset="0.45" stop-color="#121212"/>
      <stop offset="0.7" stop-color="#282828"/>
      <stop offset="0.95" stop-color="#474747"/>
      <stop offset="1" stop-color="#4d4d4d"/>
    </linearGradient>
  </defs>
  <title>Header_Generator</title>
  <g class="cls-1">
    <g id="Background">
      <rect id="Rectangle_82" data-name="Rectangle 82" class="cls-2" width="984" height="231" rx="24"/>
    </g>
    <g id="Objects">
      <g id="Paper">
        <path class="cls-3" d="M655.65,90.9Z"/>
        <path class="cls-4" d="M687.59,231.05a14.88,14.88,0,0,0,5.93-3.71c7.17-7.43,3.15-19.84,2.9-20.59H781l4.7,5.08,4.4-5.08h16.72c-1.81-17.81-3.57-36-4.75-54.45-.18-2.78-.1-1.45-.1-1.45l-7.13-4.55,6.36-5.34s-1.12-12-1.66-17.55l-6.34,2.81-1.69-3.72a4.38,4.38,0,0,1,2.31-5.81l5-2.19c-.38-4.67-.87-10.54-1-15.16a13.75,13.75,0,0,0-13.6-12.71H645.63c1,.09,6.35,0,10,4.27a12.56,12.56,0,0,1,4,8.21c1.8,24.49,6.58,72.5,6.58,72.5l1.17-1c.87,8.43,8.74,10.39,8.74,10.39l-8.51,6.53c.67,8,1.6,19.8,2.13,28.07a16.69,16.69,0,0,0,16.5,15.42h1.38Z"/>
        <path class="cls-5" d="M696.5,206.7h84.67l4.7,5.08,4.4-5.08h32.64l.63,16.12a7.8,7.8,0,0,1-7.86,8.18h-128a14.88,14.88,0,0,0,5.93-3.71C700.77,219.87,696.75,207.45,696.5,206.7Z"/>
        <path class="cls-6" d="M661,116.65H633.25l-.65-16.55a12.9,12.9,0,0,1,13-13.52h0a14.18,14.18,0,0,1,14,13.52Z"/>
      </g>
      <circle class="cls-7" cx="849.8" cy="99.75" r="3.52"/>
      <g id="Calipers">
        <path class="cls-8" d="M845.61,84.75h11.51a5.7,5.7,0,0,1,5.7,5.7v8.28a11.46,11.46,0,0,1-11.46,11.46h0A11.46,11.46,0,0,1,839.9,98.73V90.46A5.7,5.7,0,0,1,845.61,84.75Z" transform="translate(318.28 -573.45) rotate(45)"/>
        <path class="cls-9" d="M863.52,81.13h0a3.2,3.2,0,0,1,3.2,3.2v5.75a0,0,0,0,1,0,0h-6.4a0,0,0,0,1,0,0V84.33a3.2,3.2,0,0,1,3.2-3.2Z" transform="translate(313.45 -585.53) rotate(45)"/>
        <path class="cls-10" d="M824.24,103a17.84,17.84,0,0,0,1.42,8.62l15.36-6.8a11,11,0,0,1-1.6-8.54Z"/>
        <path class="cls-10" d="M817.2,106.13l-23.94,10.6a4.23,4.23,0,0,0-2.16,5.58l1.72,3.87,26.42-11.7A25.48,25.48,0,0,1,817.2,106.13Z"/>
        <path class="cls-10" d="M835,129.87,823.2,156.55l3.86,1.72a4.23,4.23,0,0,0,5.58-2.16l10.83-24.44A25,25,0,0,1,835,129.87Z"/>
        <path class="cls-10" d="M846.65,124.48l6.78-15.3a11.05,11.05,0,0,1-8.82-1l-6.75,15.23A17.37,17.37,0,0,0,846.65,124.48Z"/>
        <path class="cls-11" d="M844.22,131.69a27,27,0,0,1-18.86-8.22c-7.39-7.39-10.1-17.76-6.89-26.41A3.5,3.5,0,0,1,825,99.49c-2.22,6-.1,13.65,5.28,19s13,7.5,19,5.28a3.5,3.5,0,0,1,2.43,6.56A21.6,21.6,0,0,1,844.22,131.69Z"/>
      </g>
      <g id="Nav">
        <g class="cls-12">
          <g>
            <path class="cls-13" d="M880.54,155.74l-7.27,0A37.62,37.62,0,0,1,873,231h7.53a37.63,37.63,0,1,0,0-75.26Z"/>
            <path class="cls-13" d="M870.28,230.9l.1.09h2.23C871.83,231,871.05,231,870.28,230.9Z"/>
          </g>
          <g>
            <path class="cls-14" d="M880.54,155.74l-7.27,0A37.62,37.62,0,0,1,873,231h7.53a37.63,37.63,0,1,0,0-75.26Z"/>
            <path class="cls-15" d="M870.28,230.9l.1.09h2.23C871.83,231,871.05,231,870.28,230.9Z"/>
          </g>
        </g>
        <circle class="cls-16" cx="872.83" cy="193.37" r="37.63"/>
        <path class="cls-17" d="M880.43,200.25a1.11,1.11,0,0,1-.73.73l-10.12,3.07-9,2.73a.93.93,0,0,1-1.18-1.17l2.74-9,3.07-10.12a1.1,1.1,0,0,1,.73-.74l10.12-3.07,9-2.73a.93.93,0,0,1,1.18,1.18l-2.73,9Z"/>
        <circle class="cls-18" cx="872.83" cy="193.37" r="2.41"/>
      </g>
      <g id="Particles">
        <circle class="cls-19" cx="602.4" cy="170.28" r="7.46"/>
        <circle class="cls-19" cx="790.46" cy="49.7" r="8.95"/>
        <circle class="cls-19" cx="910.45" cy="117.2" r="7.46"/>
      </g>
      <g id="Quiz">
        <g>
          <g class="cls-20">
            <line class="cls-21" x1="735.29" y1="145.96" x2="771.21" y2="145.96"/>
            <line class="cls-21" x1="736.09" y1="156.57" x2="762.71" y2="156.57"/>
          </g>
          <path class="cls-22" d="M723.69,156.94l-.85-11.34a8.71,8.71,0,0,0-8.53-7.94H703a7.26,7.26,0,0,0-7.33,7.94l.54,7.08a42.46,42.46,0,0,1,6.93,2.86s-1.94,1.18-4.07,6.79a8.5,8.5,0,0,0,6,2.54h11.34A7.24,7.24,0,0,0,723.69,156.94Z"/>
          <path class="cls-23" d="M709.28,155.11a1.74,1.74,0,0,1-1.14-.43l-3.23-2.8a1.64,1.64,0,0,1-.26-2.29,1.61,1.61,0,0,1,2.29-.09l1.95,1.69,2.73-3.24a1.61,1.61,0,0,1,2.29-.09,1.63,1.63,0,0,1,.27,2.29l-3.75,4.44a1.51,1.51,0,0,1-1.09.52Z"/>
        </g>
        <g>
          <g class="cls-20">
            <line class="cls-21" x1="732.68" y1="111.49" x2="768.61" y2="111.49"/>
            <line class="cls-21" x1="733.49" y1="122.11" x2="760.1" y2="122.11"/>
          </g>
          <path class="cls-24" d="M713.76,130.42H702.41a8.7,8.7,0,0,1-8.53-7.93L693,111.14a7.26,7.26,0,0,1,7.34-7.93H711.7a8.7,8.7,0,0,1,8.54,7.93l.85,11.35A7.24,7.24,0,0,1,713.76,130.42Z"/>
          <path class="cls-23" d="M706.67,120.64a1.71,1.71,0,0,1-1.13-.43l-3.24-2.8a1.64,1.64,0,0,1-.26-2.29,1.61,1.61,0,0,1,2.29-.09l1.95,1.69,2.74-3.24a1.62,1.62,0,0,1,2.29-.1,1.67,1.67,0,0,1,.27,2.3l-3.75,4.44a1.53,1.53,0,0,1-1.09.52Z"/>
        </g>
        <g>
          <g class="cls-25">
            <line class="cls-21" x1="737.83" y1="179.6" x2="773.76" y2="179.6"/>
            <line class="cls-21" x1="738.63" y1="190.21" x2="765.25" y2="190.21"/>
          </g>
          <path class="cls-26" d="M719,199.36H707.61a8.72,8.72,0,0,1-8.55-8L698.2,180a7.27,7.27,0,0,1,7.35-8h11.37a8.72,8.72,0,0,1,8.56,8l.86,11.37A7.27,7.27,0,0,1,719,199.36Z"/>
          <path class="cls-27" d="M714.88,185.77l1.4-1.51a1.9,1.9,0,0,0-2.78-2.58l-1.39,1.51-1.63-1.51a1.76,1.76,0,1,0-2.38,2.58l1.62,1.51-1.39,1.51a1.83,1.83,0,0,0,.19,2.58,1.94,1.94,0,0,0,1.33.54,1.67,1.67,0,0,0,1.25-.54l1.4-1.51,1.62,1.51a2,2,0,0,0,1.33.54,1.67,1.67,0,0,0,1.25-.54,1.84,1.84,0,0,0-.19-2.58Z"/>
        </g>
      </g>
      <path id="Cursor" class="cls-28" d="M729.39,128.29a.88.88,0,0,0,0-1.51l-6.9-3.67-6.56-3.49a.93.93,0,0,0-1.34.95l1.06,7.34,1.11,7.74a.88.88,0,0,0,1.4.56l3.31-2.32a.92.92,0,0,1,1.27.2l2.59,3.69a1.94,1.94,0,0,0,2.59.53,1.9,1.9,0,0,0,.61-2.69l-2.63-3.74a.91.91,0,0,1,.24-1.27Z"/>
      <g id="Paint">
        <path class="cls-29" d="M675.92,181.08a12.48,12.48,0,0,1-6.63-5.07,11.92,11.92,0,0,1-1.87-5.43l-35.14,27a6.93,6.93,0,0,0-1.07,9.41,6.81,6.81,0,0,0,9.28,1.31C648.19,202.4,668.22,187,675.92,181.08Z"/>
        <path class="cls-30" d="M703.11,155.54s-3,1.82-5.66,11.72S682.2,188,670.82,177.86C660.12,168.38,674.74,140.92,703.11,155.54Z"/>
        <path class="cls-31" d="M668.47,174.58s3.65,3.57,12.18,3.27c7.33-.26,11.4-6.6,18.07-14.71,0,0-2.77,14.8-14.49,18.23C673.62,184.48,669,175.33,668.47,174.58Z"/>
      </g>
    </g>
  </g>
</svg>
