<svg xmlns="http://www.w3.org/2000/svg" xmlns:xlink="http://www.w3.org/1999/xlink" viewBox="0 0 984 231">
  <defs>
    <style>
      .cls-1 {
        isolation: isolate;
      }

      .cls-2 {
        fill: url(#linear-gradient);
      }

      .cls-3 {
        fill: url(#linear-gradient-2);
      }

      .cls-4 {
        opacity: 0.99;
        fill: url(#linear-gradient-3);
      }

      .cls-5 {
        opacity: 0.15;
        fill: url(#linear-gradient-4);
      }

      .cls-11, .cls-15, .cls-23, .cls-24, .cls-25, .cls-26, .cls-27, .cls-28, .cls-29, .cls-5, .cls-7, .cls-9 {
        mix-blend-mode: overlay;
      }

      .cls-6 {
        fill: #3e56ed;
      }

      .cls-7, .cls-9 {
        opacity: 0.03;
      }

      .cls-8, .cls-9 {
        fill: #425deb;
      }

      .cls-10 {
        fill: url(#linear-gradient-5);
      }

      .cls-11 {
        opacity: 0.02;
      }

      .cls-12 {
        fill: #3b53eb;
      }

      .cls-13 {
        fill: #4863f0;
      }

      .cls-14 {
        fill: url(#linear-gradient-6);
      }

      .cls-15, .cls-26, .cls-29 {
        opacity: 0.05;
      }

      .cls-16 {
        fill: url(#linear-gradient-7);
      }

      .cls-17 {
        fill: url(#linear-gradient-8);
      }

      .cls-18 {
        fill: #3c54ec;
      }

      .cls-19 {
        fill: url(#linear-gradient-9);
      }

      .cls-20 {
        fill: #455df5;
      }

      .cls-21 {
        fill: url(#linear-gradient-10);
      }

      .cls-22 {
        fill: #455fef;
      }

      .cls-23 {
        opacity: 0.09;
        fill: url(#linear-gradient-11);
      }

      .cls-24 {
        opacity: 0.07;
        fill: url(#linear-gradient-12);
      }

      .cls-25 {
        opacity: 0.04;
      }

      .cls-27 {
        opacity: 0.06;
      }

      .cls-28 {
        opacity: 0.1;
        fill: url(#linear-gradient-13);
      }

      .cls-29 {
        fill: url(#linear-gradient-14);
      }
    </style>
    <linearGradient id="linear-gradient" x1="-2006.48" y1="2615.14" x2="-2006.77" y2="2613.47" gradientTransform="matrix(984, 0, 0, -231, 1974967.68, 604079.76)" gradientUnits="userSpaceOnUse">
      <stop offset="0" stop-color="#5e7dff"/>
      <stop offset="0.86" stop-color="#3c5bdf"/>
    </linearGradient>
    <linearGradient id="linear-gradient-2" x1="722.49" y1="169.49" x2="753.3" y2="169.49" gradientUnits="userSpaceOnUse">
      <stop offset="0.1" stop-color="#3e5ae4" stop-opacity="0.8"/>
      <stop offset="0.84" stop-color="#4d67f3"/>
    </linearGradient>
    <linearGradient id="linear-gradient-3" x1="688.8" y1="152.3" x2="731.67" y2="182.87" gradientTransform="translate(-18.71 165.56) rotate(-13.23)" gradientUnits="userSpaceOnUse">
      <stop offset="0.2" stop-color="#4864f1"/>
      <stop offset="0.84" stop-color="#4c69f2"/>
    </linearGradient>
    <linearGradient id="linear-gradient-4" x1="682.84" y1="148.05" x2="739.26" y2="188.28" gradientTransform="translate(-18.71 165.56) rotate(-13.23)" gradientUnits="userSpaceOnUse">
      <stop offset="0" stop-color="#fff"/>
      <stop offset="0.33" stop-color="#949494"/>
      <stop offset="0.8"/>
    </linearGradient>
    <linearGradient id="linear-gradient-5" x1="760.99" y1="182.87" x2="680.42" y2="206.97" gradientUnits="userSpaceOnUse">
      <stop offset="0" stop-color="#4867ef"/>
      <stop offset="0.74" stop-color="#4360ec"/>
    </linearGradient>
    <linearGradient id="linear-gradient-6" x1="739.5" y1="32.27" x2="771.99" y2="32.27" gradientTransform="translate(34.89 -170.01) rotate(14.44)" gradientUnits="userSpaceOnUse">
      <stop offset="0" stop-color="#4961fc"/>
      <stop offset="1" stop-color="#3c54ec"/>
    </linearGradient>
    <linearGradient id="linear-gradient-7" x1="766.38" y1="42.8" x2="736.81" y2="5.78" gradientTransform="translate(34.89 -170.01) rotate(14.44)" gradientUnits="userSpaceOnUse">
      <stop offset="0.66" stop-color="#526dfd"/>
      <stop offset="1" stop-color="#5673fc"/>
    </linearGradient>
    <linearGradient id="linear-gradient-8" x1="817.8" y1="106.47" x2="896.61" y2="106.47" gradientTransform="matrix(0.97, 0.25, -0.25, 0.97, 46.26, -196.37)" gradientUnits="userSpaceOnUse">
      <stop offset="0.15" stop-color="#4e6af5" stop-opacity="0.8"/>
      <stop offset="0.28" stop-color="#4d69f4" stop-opacity="0.85"/>
      <stop offset="0.63" stop-color="#4a66f3" stop-opacity="0.96"/>
      <stop offset="0.84" stop-color="#4965f2"/>
    </linearGradient>
    <linearGradient id="linear-gradient-9" x1="886.1" y1="29.58" x2="859.67" y2="2.66" gradientUnits="userSpaceOnUse">
      <stop offset="0.03" stop-color="#4f6afa"/>
      <stop offset="0.6" stop-color="#526efa"/>
      <stop offset="1" stop-color="#5776fb"/>
    </linearGradient>
    <linearGradient id="linear-gradient-10" x1="941.73" y1="102.29" x2="982.43" y2="102.29" gradientUnits="userSpaceOnUse">
      <stop offset="0.2" stop-color="#506df4"/>
      <stop offset="0.84" stop-color="#5371f6"/>
    </linearGradient>
    <linearGradient id="linear-gradient-11" x1="806.32" y1="185" x2="758.28" y2="185" gradientUnits="userSpaceOnUse">
      <stop offset="0" stop-opacity="0"/>
      <stop offset="1"/>
    </linearGradient>
    <linearGradient id="linear-gradient-12" x1="631.31" y1="185" x2="750.69" y2="185" xlink:href="#linear-gradient-11"/>
    <linearGradient id="linear-gradient-13" x1="741.62" y1="196.77" x2="643.79" y2="174.02" gradientUnits="userSpaceOnUse">
      <stop offset="0"/>
      <stop offset="0.09" stop-color="#0f0f0f"/>
      <stop offset="0.28" stop-color="#373737"/>
      <stop offset="0.53" stop-color="#777"/>
      <stop offset="0.84" stop-color="#cecece"/>
      <stop offset="1" stop-color="#fff"/>
    </linearGradient>
    <linearGradient id="linear-gradient-14" x1="797.74" y1="37.65" x2="740.21" y2="58.27" gradientUnits="userSpaceOnUse">
      <stop offset="0" stop-color="#fff"/>
      <stop offset="0.41" stop-color="#949494"/>
      <stop offset="1"/>
    </linearGradient>
  </defs>
  <title>Header_Profile</title>
  <g class="cls-1">
    <g id="Background">
      <rect id="Rectangle_82" data-name="Rectangle 82" class="cls-2" width="984" height="231" rx="24"/>
    </g>
    <g id="Objects">
      <path class="cls-3" d="M753.15,179.09c-4.46-.35-27.54-.3-30.66,1.44,1.78-7.36,3.49-14.72,5.27-22.08h17.58a8,8,0,0,1,8,8Z" transform="translate(-0.03)"/>
      <g>
        <rect class="cls-4" x="681.74" y="140.77" width="45.32" height="45.32" rx="4.63" transform="translate(56.07 -156.88) rotate(13.23)"/>
        <rect class="cls-5" x="681.74" y="140.77" width="45.32" height="45.32" rx="4.63" transform="translate(56.07 -156.88) rotate(13.23)"/>
        <circle class="cls-6" cx="707.81" cy="155.95" r="5.51"/>
        <path class="cls-6" d="M705.14,166.43a10.79,10.79,0,0,0-12.5,6.53,1.4,1.4,0,0,0,1,1.85l18.06,4.25a1.4,1.4,0,0,0,1.72-1.22A10.79,10.79,0,0,0,705.14,166.43Z" transform="translate(-0.03)"/>
      </g>
      <path class="cls-7" d="M705.14,166.43a10.79,10.79,0,0,0-12.5,6.53,1.4,1.4,0,0,0,1,1.85l18.06,4.25a1.4,1.4,0,0,0,1.72-1.22A10.79,10.79,0,0,0,705.14,166.43Z" transform="translate(-0.03)"/>
      <g>
        <rect class="cls-8" x="749.38" y="171.48" width="38.06" height="59.1"/>
        <rect class="cls-9" x="749.38" y="171.48" width="38.06" height="59.1"/>
        <rect class="cls-10" x="650.21" y="171.48" width="100.17" height="59.1"/>
        <rect class="cls-11" x="650.21" y="171.48" width="100.17" height="59.1"/>
        <polygon class="cls-12" points="806.85 198.52 768.61 198.52 749.96 171.48 788.2 171.48 806.85 198.52"/>
        <polygon class="cls-12" points="631.32 198.52 732.03 198.52 750.69 171.48 649.97 171.48 631.32 198.52"/>
      </g>
      <g>
        <path class="cls-13" d="M723.06,69.91a1.58,1.58,0,0,1-1.12-2.69,45.79,45.79,0,0,1,4.88-4.38,1.58,1.58,0,0,1,1.88,2.53,46.33,46.33,0,0,0-4.51,4.06A1.57,1.57,0,0,1,723.06,69.91Z" transform="translate(-0.03)"/>
        <path class="cls-13" d="M748.7,131.58a1.59,1.59,0,0,1-1.57-1.39c-.45-3.79-2.55-7-6.59-10.23a1.58,1.58,0,0,1,2-2.48c4.67,3.7,7.22,7.73,7.77,12.33a1.59,1.59,0,0,1-1.38,1.76Zm-19-18.38A1.57,1.57,0,0,1,729,113l-.6-.31c-4.29-2.24-8.35-4.35-11.5-6.88a1.58,1.58,0,1,1,2-2.46c2.9,2.33,6.83,4.38,11,6.54l.6.31a1.58,1.58,0,0,1-.74,3ZM712,94.27a1.58,1.58,0,0,1-1.57-1.48c0-.53-.05-1.05-.05-1.57a27.94,27.94,0,0,1,3.16-12.52,1.58,1.58,0,1,1,2.83,1.41,24.81,24.81,0,0,0-2.83,11.11c0,.45,0,.9,0,1.36a1.58,1.58,0,0,1-1.47,1.68Z" transform="translate(-0.03)"/>
        <path class="cls-13" d="M741.94,150.09a1.54,1.54,0,0,1-.91-.29,1.59,1.59,0,0,1-.37-2.21,49.89,49.89,0,0,0,3.29-5.17,1.58,1.58,0,0,1,2.77,1.52,53.26,53.26,0,0,1-3.49,5.49A1.58,1.58,0,0,1,741.94,150.09Z" transform="translate(-0.03)"/>
      </g>
      <g id="Plane">
        <path class="cls-14" d="M743.41,64.3,743.49,51s0-.05,0-.08l-.66-4.52a.51.51,0,0,1,.37-.57l35-10a.52.52,0,0,1,.5.88l-18.6,17.86-5.59,5.52-.16.1-10.25,4.58A.52.52,0,0,1,743.41,64.3Z" transform="translate(-0.03)"/>
        <path class="cls-15" d="M743.41,64.3,743.49,51s0-.05,0-.08l-.66-4.52a.51.51,0,0,1,.37-.57l35-10a.52.52,0,0,1,.5.88l-18.6,17.86-5.59,5.52-.16.1-10.25,4.58A.52.52,0,0,1,743.41,64.3Z" transform="translate(-0.03)"/>
        <path class="cls-16" d="M743.37,50.91l-12.91-8.42a.27.27,0,0,1,.11-.5l50.08-7.24a.27.27,0,0,1,.29.38c-2,3.87-15.67,30.71-17.35,34.14a.27.27,0,0,1-.44.07l-13-13.78a.27.27,0,0,1,0-.41L777.51,37a.27.27,0,0,0-.26-.48L743.62,50.93A.25.25,0,0,1,743.37,50.91Z" transform="translate(-0.03)"/>
      </g>
      <g id="Text">
        <path class="cls-17" d="M885.44,137a20.37,20.37,0,0,1-27.51,8.55l-.39-.2-4.06,2.56-6.09,3.85-.29-7.2-.19-4.8-23.57-12.39a20.37,20.37,0,1,1,18.95-36.07l34.6,18.19A20.36,20.36,0,0,1,885.44,137Z" transform="translate(-0.03)"/>
        <g>
          <circle class="cls-18" cx="835.03" cy="110.87" r="3.51"/>
          <circle class="cls-18" cx="850.05" cy="118.89" r="3.51"/>
          <circle class="cls-18" cx="865.08" cy="125.9" r="3.51"/>
        </g>
      </g>
      <g id="Item">
        <path class="cls-19" d="M915.18,26.33,862.13.19H853L868,43.9a1.73,1.73,0,0,0,2.2,1.07L915,29.51A1.72,1.72,0,0,0,915.18,26.33Zm-29.72,1.74-8.34,2.87a1.73,1.73,0,0,1-2.2-1.07l-2.87-8.33a1.73,1.73,0,0,1,2.39-2.12l11.21,5.46A1.73,1.73,0,0,1,885.46,28.07Z" transform="translate(-0.03)"/>
        <g>
          <path class="cls-20" d="M883.7,14.77a1,1,0,0,0,.47,1.37,1,1,0,0,0,.45.1,1,1,0,0,0,.92-.57l1.4-2.89a.82.82,0,0,0,.09-.34l-1.72-.83a.93.93,0,0,0-.21.27Z" transform="translate(-0.03)"/>
          <path class="cls-20" d="M875.69,10.88a1,1,0,0,0,.48,1.37,1,1,0,0,0,.44.11,1.05,1.05,0,0,0,.93-.58l1.4-2.89a1.31,1.31,0,0,0,.09-.34l-1.73-.83a.93.93,0,0,0-.21.27Z" transform="translate(-0.03)"/>
          <path class="cls-20" d="M867.69,7a1,1,0,0,0,.47,1.37,1.06,1.06,0,0,0,.45.11,1,1,0,0,0,.92-.58L870.94,5a1,1,0,0,0,.08-.33l-1.72-.84a1.09,1.09,0,0,0-.21.27Z" transform="translate(-0.03)"/>
          <path class="cls-20" d="M891.7,18.66a1,1,0,0,0,.47,1.37,1,1,0,0,0,.45.1,1,1,0,0,0,.93-.58l1.4-2.88a1.31,1.31,0,0,0,.09-.34l-1.73-.83a.93.93,0,0,0-.21.27Z" transform="translate(-0.03)"/>
          <path class="cls-20" d="M899.7,22.55a1,1,0,0,0,.48,1.37,1,1,0,0,0,1.37-.48l1.4-2.88a.82.82,0,0,0,.09-.34l-1.72-.84a.83.83,0,0,0-.21.28Z" transform="translate(-0.03)"/>
        </g>
      </g>
      <g id="Image">
        <path class="cls-21" d="M982.43,83.41l-13-10.74a1,1,0,0,0-1.35.13L942,104.46a1,1,0,0,0,.13,1.35l31.66,26.1a1,1,0,0,0,1.35-.13l7.34-8.91Z" transform="translate(-0.03)"/>
        <path class="cls-22" d="M982.43,94.29l-7.22-.09A1.18,1.18,0,0,0,974,95.62L977,110l.62,3a1.18,1.18,0,0,1-1.17,1.42l-8.69-.12a1.19,1.19,0,0,0-1.18,1.43l2.07,10,.62,3a1.21,1.21,0,0,0,.41.67l3.65,3a1.2,1.2,0,0,0,1.67-.16l7.42-9Z" transform="translate(-0.03)"/>
        <circle class="cls-22" cx="957.73" cy="103.36" r="4.01"/>
      </g>
      <polygon class="cls-23" points="806.85 198.52 768.61 198.52 749.96 171.48 788.2 171.48 806.85 198.52"/>
      <polygon class="cls-24" points="631.32 198.52 732.03 198.52 750.69 171.48 649.97 171.48 631.32 198.52"/>
      <circle class="cls-25" cx="707.81" cy="155.95" r="5.51"/>
      <g class="cls-26">
        <circle cx="835.03" cy="110.87" r="3.51"/>
        <circle cx="850.05" cy="118.89" r="3.51"/>
        <circle cx="865.08" cy="125.9" r="3.51"/>
      </g>
      <path class="cls-27" d="M982.43,94.29l-7.22-.09A1.18,1.18,0,0,0,974,95.62L977,110l.62,3a1.18,1.18,0,0,1-1.17,1.42l-8.69-.12a1.19,1.19,0,0,0-1.18,1.43l2.07,10,.62,3a1.21,1.21,0,0,0,.41.67l3.65,3a1.2,1.2,0,0,0,1.67-.16l7.42-9Z" transform="translate(-0.03)"/>
      <circle class="cls-27" cx="957.73" cy="103.36" r="4.01"/>
      <polygon class="cls-28" points="631.32 198.52 732.03 198.52 750.69 171.48 649.97 171.48 631.32 198.52"/>
      <path class="cls-29" d="M743.35,51.05l-12.92-8.43a.27.27,0,0,1,.11-.49l50.12-7.25a.26.26,0,0,1,.28.38c-2,3.87-15.67,30.74-17.35,34.17a.27.27,0,0,1-.44.06l-13-13.78a.28.28,0,0,1,0-.42l27.35-18.16a.27.27,0,0,0-.25-.48L743.6,51.07A.25.25,0,0,1,743.35,51.05Z" transform="translate(-0.03)"/>
    </g>
  </g>
</svg>
