<svg id="bell" xmlns="http://www.w3.org/2000/svg" width="32.162" height="44.353" viewBox="0 0 32.162 44.353">
  <g id="Group_321" data-name="Group 321">
    <g id="Group_320" data-name="Group 320">
      <path id="Path_996" data-name="Path 996" d="M102.231,35.962,100.068,31.9V21.872A13.645,13.645,0,0,0,90.226,8.786V3.78a3.78,3.78,0,1,0-7.559,0V8.786a13.645,13.645,0,0,0-9.841,13.087V31.9l-2.164,4.061a2.5,2.5,0,0,0,2.206,3.675h8.59a5,5,0,0,0,9.976,0h8.59a2.5,2.5,0,0,0,2.206-3.675ZM84.667,3.78a1.78,1.78,0,1,1,3.559,0V8.368a13.68,13.68,0,0,0-3.559,0ZM74.826,21.872a11.621,11.621,0,0,1,23.242,0v9.2H74.826ZM86.447,42.353a3,3,0,0,1-2.983-2.716H89.43A3,3,0,0,1,86.447,42.353Zm14.007-4.958a.492.492,0,0,1-.429.243H72.869a.5.5,0,0,1-.441-.735l2.04-3.829H98.426l2.04,3.829A.493.493,0,0,1,100.454,37.395Z" transform="translate(-70.366)"/>
    </g>
  </g>
  <g id="Group_323" data-name="Group 323" transform="translate(7.126 12.917)">
    <g id="Group_322" data-name="Group 322">
      <path id="Path_997" data-name="Path 997" d="M161.577,149.113a8.966,8.966,0,0,0-8.955,8.955,1,1,0,0,0,2,0,6.963,6.963,0,0,1,6.955-6.955,1,1,0,0,0,0-2Z" transform="translate(-152.622 -149.113)"/>
    </g>
  </g>
</svg>
