<svg xmlns="http://www.w3.org/2000/svg" width="32.744" height="32.743" viewBox="0 0 32.744 32.743">
  <path id="Path_87" data-name="Path 87" d="M30.814,2.291H26.74q.022-.677.023-1.361a.93.93,0,0,0-.93-.93H5.911a.93.93,0,0,0-.93.93q0,.684.023,1.361H.93a.93.93,0,0,0-.93.93,20.157,20.157,0,0,0,3.067,11.07c1.955,2.938,4.558,4.623,7.371,4.787a9.549,9.549,0,0,0,2.014,1.691V24.9h-1.56a3.424,3.424,0,0,0-3.42,3.42v1.56H7.4a.93.93,0,1,0,0,1.86H24.339a.93.93,0,1,0,0-1.86h-.066v-1.56a3.424,3.424,0,0,0-3.42-3.42h-1.56V20.769a9.543,9.543,0,0,0,2.014-1.691c2.813-.164,5.416-1.849,7.371-4.787a20.156,20.156,0,0,0,3.066-11.07A.93.93,0,0,0,30.814,2.291Zm-26.2,10.97A17.923,17.923,0,0,1,1.88,4.151H5.107A31.077,31.077,0,0,0,8,15.433q.372.744.776,1.406A8.969,8.969,0,0,1,4.615,13.261Zm17.8,15.062v1.56H9.331v-1.56a1.562,1.562,0,0,1,1.56-1.56h9.961A1.562,1.562,0,0,1,22.413,28.323ZM17.432,24.9H14.311V21.578a6.051,6.051,0,0,0,3.121,0Zm.576-5.538a.9.9,0,0,0-.121.061,4.342,4.342,0,0,1-4.031,0,.926.926,0,0,0-.122-.062,7.486,7.486,0,0,1-2.1-1.733.941.941,0,0,0-.118-.139A14.66,14.66,0,0,1,9.66,14.6,30.7,30.7,0,0,1,6.851,1.86H24.892A30.707,30.707,0,0,1,22.084,14.6a14.671,14.671,0,0,1-1.854,2.892.917.917,0,0,0-.119.139A7.488,7.488,0,0,1,18.008,19.365Zm9.12-6.1a8.969,8.969,0,0,1-4.158,3.578q.4-.662.776-1.406A31.081,31.081,0,0,0,26.636,4.151h3.228A17.924,17.924,0,0,1,27.129,13.261Zm0,0" transform="translate(0.5 0.5)" fill="#131330" stroke="#131330" stroke-width="1"/>
</svg>
