<svg id="Layer_1" data-name="Layer 1" xmlns="http://www.w3.org/2000/svg" viewBox="0 0 99.61 130.7"><defs><style>.cls-1{fill:none;stroke:#5e7dff;stroke-linecap:round;stroke-linejoin:round;stroke-width:7.5px;}</style></defs><title>całka</title><path class="cls-1" d="M249.8,284.6h-1.24a16.12,16.12,0,0,1-16.12-16.12V246.69a8.15,8.15,0,0,1,8.15-8.15h4.81a2,2,0,0,0,2-2v-.86a7.48,7.48,0,0,1,7.94-7.48,7.7,7.7,0,0,1,7,7.79v.55a2,2,0,0,0,2,2h10.65A3.46,3.46,0,0,1,278.5,242v11" transform="translate(-228.69 -157.65)"/><path class="cls-1" d="M249.8,284.6" transform="translate(-228.69 -157.65)"/><path class="cls-1" d="M278.5,269.21v7.24a8.15,8.15,0,0,1-8.15,8.15H269.2" transform="translate(-228.69 -157.65)"/><path class="cls-1" d="M309.7,238.54h6.55a8.31,8.31,0,0,1,8.31,8.31v21.63a16.12,16.12,0,0,1-16.12,16.12H287.15A8.65,8.65,0,0,1,278.5,276v-5.4a2.07,2.07,0,0,0-2.07-2.07h-.81a7.48,7.48,0,0,1-7.47-7.94,7.69,7.69,0,0,1,7.79-7h.49a2.07,2.07,0,0,0,2.07-2.07v-7.22a5.67,5.67,0,0,1,5.67-5.68h9.3" transform="translate(-228.69 -157.65)"/><path class="cls-1" d="M324.56,229.08v1.42a8,8,0,0,1-8,8h-6.13a2,2,0,0,0-1.95,2v.92a7.47,7.47,0,0,1-7.94,7.47,7.69,7.69,0,0,1-7-7.79v-.6a2,2,0,0,0-2-2h-5.9a7.1,7.1,0,0,1-7.11-7.1V200.53a8,8,0,0,1,8-8h21.9a16.12,16.12,0,0,1,16.12,16.12v1" transform="translate(-228.69 -157.65)"/><path class="cls-1" d="M288.85,185.46a7.7,7.7,0,0,1-7.79,7H278.5V199a8.51,8.51,0,0,1-8.51,8.51h-5.31a2,2,0,0,1-2-2v-.86a7.49,7.49,0,0,0-7.72-7.49,7.69,7.69,0,0,0-7.25,7.8v.55a2,2,0,0,1-2,2H241a8.51,8.51,0,0,1-8.51-8.51V177.52a16.12,16.12,0,0,1,16.12-16.12H270a8.51,8.51,0,0,1,8.51,8.51v7.61h2.88a7.48,7.48,0,0,1,7.47,7.94Z" transform="translate(-228.69 -157.65)"/><line class="cls-1" x1="42.54" y1="126.95" x2="56.84" y2="126.95"/><line class="cls-1" x1="95.86" y1="100.02" x2="95.86" y2="72.85"/><line class="cls-1" x1="49.81" y1="67.05" x2="49.81" y2="87.25"/></svg>