<svg xmlns="http://www.w3.org/2000/svg" width="43.185" height="42.938" viewBox="0 0 43.185 42.938"><g transform="translate(0.517 0.517)"><path d="M41.688,1.011a.78.78,0,0,0-.848.167L.23,41.54a.779.779,0,0,0,.549,1.332H41.389a.779.779,0,0,0,.779-.779V1.73A.779.779,0,0,0,41.688,1.011ZM2.668,41.313,40.609,3.6V9.966H38.094a.779.779,0,1,0,0,1.558h2.515v4.025H38.094a.779.779,0,1,0,0,1.558h2.515V21H38.094a.779.779,0,1,0,0,1.558h2.515v3.96H38.115a.779.779,0,0,0,0,1.558h2.494V32.04H38.094a.779.779,0,0,0,0,1.558h2.515v7.716Z" transform="translate(0 -0.951)" fill="#5e7dff" stroke="#5e7dff" stroke-width="1"/><path d="M174.031,162.089a.78.78,0,0,0-.848.167l-10.845,10.779a.779.779,0,0,0,.549,1.332h10.845a.779.779,0,0,0,.779-.779V162.808A.779.779,0,0,0,174.031,162.089Zm-1.078,10.719h-8.177l8.177-8.127Z" transform="translate(-141.059 -141.113)" fill="#5e7dff" stroke="#5e7dff" stroke-width="1"/><g transform="translate(37.336 36.584)"><path d="M288.315,284.257a.779.779,0,0,1,0-1.558h3.235a.779.779,0,1,1,0,1.558Z" transform="translate(-287.536 -282.699)" fill="#5e7dff" stroke="#5e7dff" stroke-width="1"/></g></g></svg>