<svg id="Layer_1" data-name="Layer 1" xmlns="http://www.w3.org/2000/svg" viewBox="0 0 126.14 126.14"><defs><style>.cls-1,.cls-2{fill:none;stroke:#5e7dff;stroke-linecap:round;stroke-linejoin:round;}.cls-1{stroke-width:7.5px;}.cls-2{stroke-width:5px;}</style></defs><title>kombinatoryka</title><path class="cls-1" d="M308.91,247.4V289a20.71,20.71,0,0,1-20.71,20.7H211a20.7,20.7,0,0,1-20.7-20.7V211.8A20.71,20.71,0,0,1,211,191.09H288.2a20.71,20.71,0,0,1,20.71,20.71v10.67" transform="translate(-186.52 -187.34)"/><line class="cls-1" x1="3.75" y1="63.07" x2="37.48" y2="63.07"/><line class="cls-1" x1="63.07" y1="3.75" x2="63.07" y2="93.66"/><line class="cls-2" x1="23.82" y1="33.79" x2="45.15" y2="33.79"/><line class="cls-2" x1="34.49" y1="23.12" x2="34.49" y2="44.45"/><path class="cls-2" d="M231.68,270.67" transform="translate(-186.52 -187.34)"/><line class="cls-2" x1="83.69" y1="33.97" x2="105.03" y2="33.97"/><line class="cls-2" x1="25.01" y1="85.63" x2="40.1" y2="100.72"/><line class="cls-2" x1="40.1" y1="85.63" x2="25.01" y2="100.72"/><line class="cls-2" x1="84.73" y1="87.29" x2="101.59" y2="87.29"/><line class="cls-2" x1="84.73" y1="98.59" x2="101.59" y2="98.59"/></svg>