<svg id="Layer_1" data-name="Layer 1" xmlns="http://www.w3.org/2000/svg" viewBox="0 0 88.68 65.98"><defs><style>.cls-1{fill:#5e7dff;stroke:#5e7dff;stroke-miterlimit:10;}</style></defs><title>liczbowe</title><path class="cls-1" d="M204.85,267.74a2.62,2.62,0,0,1-1.91-.82,2.67,2.67,0,0,1-.82-2V231.56l-4,1.7a4.5,4.5,0,0,1-1.75.38,2.77,2.77,0,0,1-2-.76,2.61,2.61,0,0,1-.79-2,3,3,0,0,1,.44-1.59,2.5,2.5,0,0,1,1.37-1l8.53-3.07a4.21,4.21,0,0,1,.55-.16A2.26,2.26,0,0,1,205,225a2.59,2.59,0,0,1,2,.79,2.85,2.85,0,0,1,.74,2.05V265a2.67,2.67,0,0,1-.82,2A2.74,2.74,0,0,1,204.85,267.74Z" transform="translate(-193.08 -212.48)"/><path class="cls-1" d="M222.31,278a2.64,2.64,0,0,1-2-.82,2.73,2.73,0,0,1-.8-2,2.68,2.68,0,0,1,.77-2L235.83,255a20.19,20.19,0,0,0,2.55-3.61,6.91,6.91,0,0,0,.9-3.23,9.68,9.68,0,0,0-.82-4.16,6.24,6.24,0,0,0-2.35-2.71,7.29,7.29,0,0,0-7.42.11,7.64,7.64,0,0,0-2.63,2.84,8.15,8.15,0,0,0-.95,3.92,2.77,2.77,0,0,1-2.8,2.73,2.69,2.69,0,0,1-2-.82,2.63,2.63,0,0,1-.82-1.91,13,13,0,0,1,1.7-6.65,12.51,12.51,0,0,1,4.62-4.63,13,13,0,0,1,6.6-1.69,12.75,12.75,0,0,1,6.46,1.58,10.87,10.87,0,0,1,4.24,4.49,14.88,14.88,0,0,1,1.51,6.9,9.43,9.43,0,0,1-.74,3.56,19.4,19.4,0,0,1-1.86,3.44,31,31,0,0,1-2.28,3l-12.53,14.23h15.33a2.79,2.79,0,0,1,2,4.76,2.74,2.74,0,0,1-2,.82Z" transform="translate(-193.08 -212.48)"/><path class="cls-1" d="M268,255.78a15,15,0,0,1-7.28-1.72,12.84,12.84,0,0,1-5-4.71,12.63,12.63,0,0,1-1.81-6.7,2.92,2.92,0,0,1,.74-2.06,2.36,2.36,0,0,1,1.78-.79,2.33,2.33,0,0,1,1.8.79,3,3,0,0,1,.72,2.06,7.86,7.86,0,0,0,1.14,4.13,8.58,8.58,0,0,0,3.12,3,8.82,8.82,0,0,0,4.44,1.12,8.34,8.34,0,0,0,5.83-2,7.18,7.18,0,0,0,2.21-5.61,8.54,8.54,0,0,0-1-4.13,7.88,7.88,0,0,0-2.68-2.93,6.94,6.94,0,0,0-3.84-1.09,2.64,2.64,0,0,1-2-.82,2.81,2.81,0,0,1-.8-2,2.72,2.72,0,0,1,2.79-2.79,6,6,0,0,0,3-.79,6.89,6.89,0,0,0,2.35-2.14,5.17,5.17,0,0,0,.93-3,5.31,5.31,0,0,0-1.75-4.05,6.28,6.28,0,0,0-4.49-1.65,8.84,8.84,0,0,0-3.8.82,7.24,7.24,0,0,0-2.74,2.19,5.09,5.09,0,0,0-1,3.07A3.2,3.2,0,0,1,260,226a2.27,2.27,0,0,1-1.81.84,2.36,2.36,0,0,1-1.78-.79,2.82,2.82,0,0,1-.73-2,10.16,10.16,0,0,1,1.64-5.69,11.4,11.4,0,0,1,4.49-4,13.83,13.83,0,0,1,6.35-1.45,12.1,12.1,0,0,1,5.82,1.4,10.77,10.77,0,0,1,4.11,3.77,9.93,9.93,0,0,1,1.5,5.4,7.31,7.31,0,0,1-.95,3.77,9.87,9.87,0,0,1-2.44,2.82,15,15,0,0,1-3.12,1.94,13.09,13.09,0,0,1,4.71,2.66,10.2,10.2,0,0,1,2.65,3.86,13,13,0,0,1,.85,4.76,11.61,11.61,0,0,1-1.8,6.38,12.92,12.92,0,0,1-4.82,4.43A13.76,13.76,0,0,1,268,255.78Z" transform="translate(-193.08 -212.48)"/></svg>