<svg id="Layer_1" data-name="Layer 1" xmlns="http://www.w3.org/2000/svg" viewBox="0 0 137.14 142.76"><defs><style>.cls-1,.cls-2{fill:none;stroke:#5e7dff;stroke-linecap:round;stroke-linejoin:round;}.cls-1{stroke-width:5px;}.cls-2{stroke-width:7.5px;}</style></defs><title>liniowa</title><line class="cls-1" x1="98.37" y1="83.06" x2="103.36" y2="88.04"/><line class="cls-1" x1="83.16" y1="89.14" x2="92.71" y2="98.69"/><line class="cls-1" x1="77.08" y1="104.35" x2="82.07" y2="109.34"/><line class="cls-1" x1="61.87" y1="110.43" x2="71.42" y2="119.98"/><line class="cls-1" x1="55.79" y1="125.64" x2="60.78" y2="130.63"/><line class="cls-1" x1="104.46" y1="67.85" x2="114.01" y2="77.4"/><line class="cls-1" x1="119.66" y1="61.76" x2="124.65" y2="66.75"/><path class="cls-2" d="M281.77,232.4l11.63-11.64a6.65,6.65,0,0,1,9.41,0l13.6,13.6a6.65,6.65,0,0,1,0,9.41l-73.47,73.46a6.65,6.65,0,0,1-9.41,0l-13.59-13.59a6.66,6.66,0,0,1,0-9.42l47.32-47.31" transform="translate(-184.96 -180.17)"/><path class="cls-2" d="M229.09,210.74,252.81,187a10.58,10.58,0,0,1,14.95,0l7.36,7.36a10.57,10.57,0,0,1,0,15L215.4,269.05a74.53,74.53,0,0,1-11.54,2.29l-13.77,1.73a1.23,1.23,0,0,1-1.37-1.36l1.8-14.22,1.13-9a2.11,2.11,0,0,1,.18-.27,11.08,11.08,0,0,1,1.25-1.52l15-15" transform="translate(-184.96 -180.17)"/><line class="cls-2" x1="59.85" y1="14.84" x2="82.16" y2="37.15"/><line class="cls-2" x1="8.87" y1="65.82" x2="31.18" y2="88.13"/><line class="cls-2" x1="32.05" y1="42.64" x2="32.05" y2="42.64"/></svg>