<svg id="Layer_1" data-name="Layer 1" xmlns="http://www.w3.org/2000/svg" xmlns:xlink="http://www.w3.org/1999/xlink" viewBox="0 0 129.1 146.09"><defs><style>.cls-1,.cls-2{fill:none;}.cls-2{stroke:#5e7dff;stroke-linecap:round;stroke-linejoin:round;stroke-width:7.5px;}.cls-3{isolation:isolate;}.cls-4{clip-path:url(#clip-path);}.cls-5{fill:#5e7dff;}.cls-6{clip-path:url(#clip-path-2);}.cls-7{clip-path:url(#clip-path-3);}</style><clipPath id="clip-path" transform="translate(-185.04 -177.37)"><polygon class="cls-1" points="215.74 214.45 249.48 194.84 283.43 214.44 249.69 234.05 215.74 214.45"/></clipPath><clipPath id="clip-path-2" transform="translate(-185.04 -177.37)"><polygon class="cls-1" points="205.6 279.21 205.71 240.6 230.14 254.71 230.03 293.31 205.6 279.21"/></clipPath><clipPath id="clip-path-3" transform="translate(-185.04 -177.37)"><polygon class="cls-1" points="277.32 278.56 277.28 266.79 287.52 260.88 287.56 272.65 277.32 278.56"/></clipPath></defs><title>prawdopodobienstwo</title><path class="cls-2" d="M267.19,310.78" transform="translate(-185.04 -177.37)"/><path class="cls-2" d="M267.19,310.78l-12.69,7.44a10.79,10.79,0,0,1-11,0L194,288.6a10.8,10.8,0,0,1-5.25-9.27V220.67a10.8,10.8,0,0,1,5.37-9.34l49.45-28.75a10.83,10.83,0,0,1,10.78-.05l50.55,28.82a10.79,10.79,0,0,1,5.45,9.38v58.54a10.8,10.8,0,0,1-5.34,9.32l-15.91,9.33" transform="translate(-185.04 -177.37)"/><g class="cls-3"><g class="cls-4"><path class="cls-5" d="M253.9,198.21a9.68,9.68,0,0,0-8.8,0c-2.41,1.4-2.4,3.69,0,5.09a9.72,9.72,0,0,0,8.79,0c2.42-1.41,2.4-3.69,0-5.09" transform="translate(-185.04 -177.37)"/><path class="cls-5" d="M245.13,203.3c-2.43-1.4-2.44-3.69,0-5.09a9.68,9.68,0,0,1,8.8,0c2.42,1.4,2.44,3.68,0,5.09a9.72,9.72,0,0,1-8.79,0m9.47-5.5a11.27,11.27,0,0,0-10.21,0c-2.8,1.63-2.79,4.28,0,5.91a11.25,11.25,0,0,0,10.2,0c2.8-1.63,2.79-4.28,0-5.91" transform="translate(-185.04 -177.37)"/><path class="cls-5" d="M277.61,211.9a9.72,9.72,0,0,0-8.79,0c-2.42,1.41-2.4,3.69,0,5.09a9.68,9.68,0,0,0,8.8,0c2.42-1.4,2.4-3.69,0-5.09" transform="translate(-185.04 -177.37)"/><path class="cls-5" d="M268.84,217c-2.42-1.4-2.44-3.68,0-5.09a9.72,9.72,0,0,1,8.79,0c2.43,1.4,2.45,3.69,0,5.09a9.68,9.68,0,0,1-8.8,0m9.47-5.5a11.25,11.25,0,0,0-10.2,0c-2.8,1.63-2.79,4.28,0,5.91a11.27,11.27,0,0,0,10.21,0c2.8-1.63,2.79-4.28,0-5.91" transform="translate(-185.04 -177.37)"/><path class="cls-5" d="M230.33,211.9a9.72,9.72,0,0,0-8.79,0c-2.42,1.41-2.41,3.69,0,5.1a9.67,9.67,0,0,0,8.78,0c2.42-1.4,2.41-3.69,0-5.09" transform="translate(-185.04 -177.37)"/><path class="cls-5" d="M221.57,217c-2.44-1.41-2.45-3.69,0-5.1a9.72,9.72,0,0,1,8.79,0c2.43,1.4,2.44,3.69,0,5.09a9.67,9.67,0,0,1-8.78,0m9.47-5.51a11.27,11.27,0,0,0-10.21,0c-2.8,1.63-2.8,4.28,0,5.92a11.25,11.25,0,0,0,10.2,0c2.81-1.63,2.8-4.28,0-5.91" transform="translate(-185.04 -177.37)"/><path class="cls-5" d="M254.05,225.59a9.69,9.69,0,0,0-8.79,0c-2.42,1.4-2.41,3.69,0,5.09a9.72,9.72,0,0,0,8.79,0c2.42-1.41,2.41-3.69,0-5.1" transform="translate(-185.04 -177.37)"/><path class="cls-5" d="M245.28,230.69c-2.43-1.4-2.44-3.69,0-5.09a9.69,9.69,0,0,1,8.79,0c2.43,1.41,2.44,3.69,0,5.1a9.72,9.72,0,0,1-8.79,0m9.47-5.51a11.25,11.25,0,0,0-10.2,0c-2.81,1.63-2.8,4.28,0,5.91a11.27,11.27,0,0,0,10.21,0c2.81-1.63,2.8-4.28,0-5.92" transform="translate(-185.04 -177.37)"/></g></g><g class="cls-3"><g class="cls-6"><path class="cls-5" d="M225,252.57c-2.43-1.41-4.42-.28-4.43,2.52a9.71,9.71,0,0,0,4.4,7.61c2.43,1.4,4.42.28,4.43-2.52a9.73,9.73,0,0,0-4.4-7.61" transform="translate(-185.04 -177.37)"/><path class="cls-5" d="M225,262.7a9.71,9.71,0,0,1-4.4-7.61c0-2.8,2-3.93,4.43-2.52a9.73,9.73,0,0,1,4.4,7.61c0,2.8-2,3.92-4.43,2.52m0-10.95c-2.82-1.63-5.13-.31-5.14,2.93a11.26,11.26,0,0,0,5.11,8.84c2.82,1.63,5.12.31,5.13-2.93a11.27,11.27,0,0,0-5.1-8.84" transform="translate(-185.04 -177.37)"/><path class="cls-5" d="M210.75,271.21c-2.43-1.4-4.41-.27-4.42,2.52a9.68,9.68,0,0,0,4.4,7.62c2.43,1.4,4.41.27,4.42-2.52a9.69,9.69,0,0,0-4.4-7.62" transform="translate(-185.04 -177.37)"/><path class="cls-5" d="M210.73,281.35a9.68,9.68,0,0,1-4.4-7.62c0-2.79,2-3.92,4.42-2.52a9.69,9.69,0,0,1,4.4,7.62c0,2.79-2,3.92-4.42,2.52m0-11c-2.82-1.63-5.13-.32-5.14,2.92a11.24,11.24,0,0,0,5.1,8.84c2.83,1.63,5.13.32,5.14-2.92a11.26,11.26,0,0,0-5.1-8.84" transform="translate(-185.04 -177.37)"/></g></g><polyline class="cls-2" points="5.44 38.06 63.95 71.69 122.39 38.76"/><line class="cls-2" x1="63.95" y1="139.01" x2="63.95" y2="71.69"/><g class="cls-3"><g class="cls-7"><path class="cls-5" d="M282.41,264.66a9.66,9.66,0,0,0-4.4,7.61c0,2.79,2,3.92,4.42,2.52a9.68,9.68,0,0,0,4.4-7.62c0-2.79-2-3.92-4.42-2.51" transform="translate(-185.04 -177.37)"/><path class="cls-5" d="M282.43,274.79c-2.43,1.4-4.41.27-4.42-2.52a9.66,9.66,0,0,1,4.4-7.61c2.43-1.41,4.41-.28,4.42,2.51a9.68,9.68,0,0,1-4.4,7.62m0-11a11.26,11.26,0,0,0-5.1,8.84c0,3.24,2.31,4.55,5.14,2.92a11.24,11.24,0,0,0,5.1-8.84c0-3.24-2.31-4.55-5.14-2.92" transform="translate(-185.04 -177.37)"/></g></g></svg>