<svg id="Layer_1" data-name="Layer 1" xmlns="http://www.w3.org/2000/svg" viewBox="0 0 131.31 122.82"><defs><style>.cls-1,.cls-2{fill:none;stroke:#5e7dff;stroke-linecap:round;stroke-linejoin:round;}.cls-1{stroke-width:10px;}.cls-2{stroke-width:6.5px;}.cls-3{fill:#5e7dff;}</style></defs><title>wielomiany</title><path class="cls-1" d="M199.71,175c-7.27,10.36-18.78,30.27-18.78,56.41,0,11.47,2.22,32.8,18.78,56.41" transform="translate(-175.93 -170)"/><path class="cls-1" d="M283.47,175c7.27,10.36,18.77,30.27,18.77,56.41,0,11.47-2.21,32.8-18.77,56.41" transform="translate(-175.93 -170)"/><path class="cls-2" d="M226.45,224.05a12.09,12.09,0,0,1,4.33-4.53c.2-.12,4.57-2.42,8.48-1.53,6.35,1.45,6.23,6.31,5.71,9-2.61,13.31-7.15,20.11-14.36,20.64-2.91.22-5.19,0-6.09-1.56-1.17-2,.55-4.77.79-5.15" transform="translate(-175.93 -170)"/><path class="cls-2" d="M259.27,240.22a13.27,13.27,0,0,1-5.45,5.43c-.51.27-5,2.7-7.78,1.33-1.7-.86-2-2.81-2-4.48,0-11.71,6.75-21.67,10.12-23.29,2.06-1,4.55-1,5.77.23s1.68,4-.23,6.65" transform="translate(-175.93 -170)"/><ellipse class="cls-3" cx="226.8" cy="240.83" rx="4.49" ry="3.68" transform="translate(-264.84 -28) rotate(-29.34)"/></svg>