<svg xmlns="http://www.w3.org/2000/svg" xmlns:xlink="http://www.w3.org/1999/xlink" viewBox="0 0 159.48 136.38"><defs><linearGradient id="A" x1="230.33" y1="318.17" x2="279.59" y2="196.95" gradientUnits="userSpaceOnUse"><stop offset="0" stop-color="#616cfe"/><stop offset=".3" stop-color="#6e7efd"/><stop offset=".71" stop-color="#7b91fc"/><stop offset="1" stop-color="#8098fc"/></linearGradient><linearGradient id="B" x1="147.85" y1="310.99" x2="182.26" y2="226.32" xlink:href="#A"/></defs><g transform="translate(-146.6 -182.38)"><path d="M256.05 236.74s50.05-12 50 20.08-8.74 50-13.34 55-16.56 7.7-35.6 6.76-52.18-.64-55.86-24.38-4.54-61.82 6.53-64.38S234 213.23 237 193.45s24-9.5 25.62 3.36-6.57 39.93-6.57 39.93z" fill="url(#A)"/><path d="M177.76 311a14.17 14.17 0 0 1-10.76 4.8h-5.9c-4.25 0-8.8-4.2-9.84-8.63a167.72 167.72 0 0 1-4.65-40.17 162.52 162.52 0 0 1 4.65-37.18 9.47 9.47 0 0 1 2.25-6.11 7.29 7.29 0 0 1 5.44-2.53h13c4.25 0 7.7 3.87 7.7 8.64a432.57 432.57 0 0 0-1.73 39.66c0 13 .64 25.1 1.6 36.16a7.22 7.22 0 0 1-1.67 5.33z" fill="url(#B)"/></g></svg>