<svg xmlns="http://www.w3.org/2000/svg" width="22.248" height="20.087" viewBox="0 0 22.248 20.087">
  <g id="Artykuły" transform="translate(-3.509 -3.493)">
    <path id="Path_1159" data-name="Path 1159" d="M18.789,15.532l-7.895,6.647a1.289,1.289,0,0,1-.823.3L6,22.5a1.5,1.5,0,0,1-1.464-1.74l.711-4.016a1.269,1.269,0,0,1,.433-.759L18.522,5.168a2.6,2.6,0,0,1,3.9.488l1.5,1.786c1.193,1.418,1.086,2.854-.184,3.922l-4.949,4.168" transform="translate(0 0)" fill="none" stroke="#fff" stroke-linecap="round" stroke-miterlimit="10" stroke-width="2"/>
    <path id="Path_1160" data-name="Path 1160" d="M73,12.76l5.247,6.234" transform="translate(-55.877 -6.743)" fill="none" stroke="#fff" stroke-miterlimit="10" stroke-width="2"/>
    <path id="Path_1161" data-name="Path 1161" d="M24.942,31.25,13.858,40.585M10.87,37.8,16.086,44" transform="translate(-5.186 -21.829)" fill="none" stroke="#fff" stroke-linecap="round" stroke-miterlimit="10" stroke-width="2"/>
  </g>
</svg>
