<svg xmlns="http://www.w3.org/2000/svg" width="50.846" height="53.089" viewBox="0 0 50.846 53.089">
  <g id="Przejrzyj-01" transform="translate(-241.57 -150.842)">
    <path id="Back" d="M301.825,219.681c-2.438,10.044-17.932,18.294-29.666,15.445s-21.32-8.559-18.882-18.6,9.817-20.785,21.761-19.213C293.176,199.711,304.264,209.637,301.825,219.681Z" transform="translate(-9.744 -39.846)" fill="#cee9f2" opacity="0.45"/>
    <path id="Odbicie" d="M348.27,244.242l-26.81-1.783,3.269-9.768,26.81,1.783Z" transform="translate(-68.733 -70.418)" fill="#fff"/>
    <g id="Lupa" transform="translate(251.329 150.842)">
      <path id="Path_1049" data-name="Path 1049" d="M328.4,184.715a16.935,16.935,0,1,1,15.138-24.494h0A16.946,16.946,0,0,1,328.4,184.715Zm-.032-26.751a9.812,9.812,0,1,0,8.8,5.434A9.812,9.812,0,0,0,328.371,157.964Z" transform="translate(-311.45 -150.842)" fill="#131330"/>
      <path id="Path_1050" data-name="Path 1050" d="M468.17,368.81a3.561,3.561,0,0,1-3.188-1.972l-9.572-19.206a3.559,3.559,0,1,1,6.371-3.176l9.573,19.2a3.561,3.561,0,0,1-3.184,5.149Z" transform="translate(-434.984 -315.722)" fill="#131330"/>
    </g>
    <path id="Dłoń" d="M5.189,0h0A5.191,5.191,0,0,1,10.38,5.191V9H0V5.191A5.191,5.191,0,0,1,5.191,0Z" transform="translate(283.658 186.547) rotate(63.51)" fill="#ffdcc0"/>
    <g id="Ręka" transform="translate(241.57 181.232)">
      <path id="Path_1051" data-name="Path 1051" d="M281.059,389.833l-.126.123-.081.1c-.052.067-.117.128-.163.186-.1.113-.205.221-.309.321a5.932,5.932,0,0,1-.627.524,5.748,5.748,0,0,1-.652.411,5.582,5.582,0,0,1-.677.314,11.909,11.909,0,0,1-1.4.419c-.471.113-.94.232-1.413.33s-.947.2-1.424.279c-.239.042-.476.087-.716.123l-.721.1q-1.443.209-2.916.309a34.594,34.594,0,0,1-5.98-.113,29.466,29.466,0,0,1-6.015-1.308,27.141,27.141,0,0,1-5.629-2.7c-.436-.279-.863-.582-1.292-.876s-.823-.631-1.223-.957c-.2-.165-.4-.324-.595-.494l-.566-.522c-.187-.173-.374-.349-.559-.528s-.376-.348-.54-.54a25.275,25.275,0,0,1-1.955-2.294l-.452-.594a6.513,6.513,0,0,1-.432-.6,11.26,11.26,0,0,1-.686-1.321c-.1-.228-.193-.462-.279-.7a5.412,5.412,0,0,1-.193-.739,10.181,10.181,0,0,1-.219-1.55c-.008-.133-.015-.267-.014-.4s.014-.279.021-.419.017-.279.036-.419.029-.279.056-.429a7.933,7.933,0,0,1,.49-1.815L247.467,372a12.948,12.948,0,0,1,3.137.684,9.169,9.169,0,0,1,1.17.458c.176.084.342.173.5.264s.33.168.482.258a5.8,5.8,0,0,1,.838.591c.256.208.5.412.749.619a8.511,8.511,0,0,0,.744.595c.254.186.5.374.747.559s.519.331.767.508l.374.258c.127.081.261.151.39.226.264.14.51.313.768.459s.529.265.785.409a26.957,26.957,0,0,0,3.225,1.373,24.851,24.851,0,0,0,3.491.9,22.66,22.66,0,0,0,3.771.37c.647.008,1.3,0,1.955-.046.328-.021.656-.046.985-.085s.658-.077.984-.123.654-.1.978-.159.644-.14.978-.165a4,4,0,0,1,.5-.01,4.128,4.128,0,0,1,.517.06,3.616,3.616,0,0,1,.535.148c.089.035.175.074.268.119a.821.821,0,0,1,.124.081l.061.045c.014.017.008.045.015.068Z" transform="translate(-242.98 -371.506)" fill="#3c5bdf"/>
      <circle id="Ellipse_69" data-name="Ellipse 69" cx="5.266" cy="5.266" r="5.266" transform="translate(0)" fill="#3c5bdf"/>
    </g>
  </g>
</svg>
