<svg xmlns="http://www.w3.org/2000/svg" width="19.844" height="21.538" viewBox="0 0 19.844 21.538">
  <path id="Opracowania" d="M15.353,18.212,10.06,12.919a2.2,2.2,0,0,1-.286-3.2h0a1.974,1.974,0,0,1,2.92.172L15,12.188m.686-5.231,6.24,6.238M8.5,17.2,6.3,15a6.158,6.158,0,0,1,0-8.713h0a6.2,6.2,0,0,1,8.71,0L16.1,7.368M14.109,22.812,8.316,16.993m5.793,5.819a4.335,4.335,0,0,0,6.034,0h0c1.666-1.666,1.339-4.165-.327-5.834L14.35,11.541" transform="translate(-3.498 -3.496)" fill="none" stroke="#fff" stroke-linecap="round" stroke-miterlimit="10" stroke-width="2"/>
</svg>
