<svg xmlns="http://www.w3.org/2000/svg" width="23.803" height="15.936" viewBox="0 0 23.803 15.936">
  <g id="Wzory" transform="translate(-3.8 -3.8)">
    <path id="Path_1153" data-name="Path 1153" d="M5.05,13.523H7.317a1.13,1.13,0,0,1,1.015.71L9.84,17.7a.419.419,0,0,0,.356.257.409.409,0,0,0,.375-.223L15.735,5.941a1.619,1.619,0,0,1,1.406-.891h8.146a1.132,1.132,0,0,1,1.066,1.189V8.853" fill="none" stroke="#fff" stroke-linecap="round" stroke-linejoin="round" stroke-width="2.5"/>
    <g id="Group_784" data-name="Group 784" transform="translate(17.552 13.054)">
      <path id="Path_1154" data-name="Path 1154" d="M80.479,44.3,75.56,49.214" transform="translate(-75.56 -44.3)" fill="none" stroke="#fff" stroke-linecap="round" stroke-linejoin="round" stroke-width="2.5"/>
      <path id="Path_1155" data-name="Path 1155" d="M80.479,49.214,75.56,44.3" transform="translate(-75.56 -44.3)" fill="none" stroke="#fff" stroke-linecap="round" stroke-linejoin="round" stroke-width="2.5"/>
    </g>
  </g>
</svg>
