<svg xmlns="http://www.w3.org/2000/svg" width="19.031" height="24.399" viewBox="0 0 19.031 24.399">
  <g id="Matura" transform="translate(-3.499 -3.5)">
    <path id="Path_1156" data-name="Path 1156" d="M15.644,19.1h1.991a3.934,3.934,0,0,1,3.9,3.973V26.9m0,6.362v1.1a3.934,3.934,0,0,1-3.9,3.971H8.394a3.934,3.934,0,0,1-3.9-3.971v-11.3A3.771,3.771,0,0,1,8.2,19.1" transform="translate(0 -11.441)" fill="none" stroke="#fff" stroke-linecap="round" stroke-miterlimit="10" stroke-width="2"/>
    <path id="Path_1157" data-name="Path 1157" d="M24.9,66.32h7.862M24.9,70.312h5.724" transform="translate(-15.986 -48.443)" fill="none" stroke="#fff" stroke-linecap="round" stroke-miterlimit="10" stroke-width="2"/>
    <path id="Path_1158" data-name="Path 1158" d="M22.3,7.62V6.426A1.926,1.926,0,0,1,24.226,4.5h0a1.924,1.924,0,0,1,1.926,1.926v5.553a1.926,1.926,0,0,1-1.926,1.935h0A1.928,1.928,0,0,1,22.3,11.987v-.411" transform="translate(-13.949)" fill="none" stroke="#fff" stroke-linecap="round" stroke-miterlimit="10" stroke-width="2"/>
  </g>
</svg>
