<svg id="Layer_1" data-name="Layer 1" xmlns="http://www.w3.org/2000/svg" xmlns:xlink="http://www.w3.org/1999/xlink" viewBox="0 0 262.4 262.4"><defs><style>.cls-1{fill:url(#linear-gradient);}.cls-2{fill:#131330;}.cls-3,.cls-9{fill:#5e7dff;}.cls-4{fill:url(#linear-gradient-2);}.cls-5,.cls-8{opacity:0.8;}.cls-5{fill:url(#linear-gradient-3);}.cls-6{fill:#ffe7d5;}.cls-7{fill:url(#linear-gradient-4);}.cls-8{fill:url(#linear-gradient-5);}.cls-9{opacity:0.45;}.cls-10,.cls-11{fill:none;stroke:#131330;stroke-linecap:round;stroke-miterlimit:10;}.cls-10{stroke-width:4px;}.cls-11{stroke-width:3px;}.cls-12{opacity:0.2;fill:url(#linear-gradient-6);}</style><linearGradient id="linear-gradient" x1="36.52" y1="65.77" x2="259.05" y2="215.13" gradientUnits="userSpaceOnUse"><stop offset="0.37" stop-color="#3c5bdf"/><stop offset="1" stop-color="#2443a8"/></linearGradient><linearGradient id="linear-gradient-2" x1="121.79" y1="208.07" x2="151.63" y2="208.07" gradientUnits="userSpaceOnUse"><stop offset="0" stop-color="#ffe7d5"/><stop offset="0.47" stop-color="#ffe5d2"/><stop offset="0.77" stop-color="#ffe0c9"/><stop offset="1" stop-color="#ffd8bd"/></linearGradient><linearGradient id="linear-gradient-3" x1="151.8" y1="199.13" x2="121.79" y2="199.13" gradientUnits="userSpaceOnUse"><stop offset="0" stop-color="#e2b79a" stop-opacity="0"/><stop offset="1" stop-color="#e2b79a"/></linearGradient><linearGradient id="linear-gradient-4" x1="80.26" y1="144.49" x2="192.33" y2="98.91" xlink:href="#linear-gradient-2"/><linearGradient id="linear-gradient-5" x1="89.22" y1="92.86" x2="190.47" y2="92.86" gradientUnits="userSpaceOnUse"><stop offset="0.3" stop-color="#e2b79a"/><stop offset="1" stop-color="#e2b79a" stop-opacity="0"/></linearGradient><linearGradient id="linear-gradient-6" x1="125.9" y1="52.46" x2="204.76" y2="52.46" gradientUnits="userSpaceOnUse"><stop offset="0.32" stop-color="#5e7dff" stop-opacity="0.4"/><stop offset="0.69" stop-color="#5e7dff"/></linearGradient></defs><title>NoProfile</title><rect id="Background" class="cls-1" width="268" height="262.4"/><path class="cls-2" d="M50.65,204.39H220.8a0,0,0,0,1,0,0V229.1a70.63,70.63,0,0,1-70.63,70.63H121.28A70.63,70.63,0,0,1,50.65,229.1V204.39a0,0,0,0,1,0,0Z" transform="translate(271.45 504.13) rotate(180)"/><path class="cls-3" d="M109,205.45c.63,8.47,2.36,26.22,6.46,38.67C121.82,263.3,131.87,272.66,138,280c6.27-6.52,16.05-22.41,22.9-42.21a124.41,124.41,0,0,0,6.36-31.31c-5.89-1.75-14.79-2.59-28.53-2.58C125.29,203.91,117.2,204.1,109,205.45Z"/><path class="cls-4" d="M121.79,189.13h29.84a0,0,0,0,1,0,0v22.95A14.92,14.92,0,0,1,136.71,227h0a14.92,14.92,0,0,1-14.92-14.92V189.13a0,0,0,0,1,0,0Z"/><path class="cls-5" d="M151.8,196.4a55.06,55.06,0,0,0-25.4,8.33,53.72,53.72,0,0,0-4.61,3.34V190.62l29.84-.42"/><g id="Head"><path class="cls-2" d="M89.68,89.43s-9.55,58-6,63.93S61,106.93,79.62,65"/><path class="cls-6" d="M82.68,126.05s-13.23-12.29-14.88,3,13.55,19.31,13.55,19.31"/><path class="cls-7" d="M195.43,120.84c1.79,41.06-26.16,75.14-56.67,76.5s-59.94-20-59.29-69.19c.56-42.78,24.49-81.4,55-82.76C160.93,44.2,193.65,79.78,195.43,120.84Z"/><path class="cls-8" d="M89.26,96.66c-1.08-1,19,14,28.4-1,0,0,13.6,7.51,25.63,5.46S156,95.71,156,95.71s18.16,17.57,33.74,1.31C193.9,92.67,179,81.8,179,81.8L97.06,85.91Z"/><path class="cls-9" d="M122.47,158.56c.42,9.64-3.63,17.65-10.62,18s-14.27-7.19-14.69-16.83S101,142,108,141.72,122.05,148.92,122.47,158.56Z"/><ellipse class="cls-2" cx="140.07" cy="126.51" rx="4.17" ry="4.23"/><path class="cls-10" d="M140.7,106.41s-10.57-1-15.93,6.43"/><ellipse class="cls-2" cx="167.38" cy="125.29" rx="4.17" ry="4.23"/><path class="cls-10" d="M174.6,112.71s-5.71-6.49-14.48-5.24"/><path class="cls-2" d="M79.63,123.27S84.49,101.2,99,96.62L85.46,89l-8.37,27.34Z"/><path class="cls-11" d="M157.43,136.37s5.78,6.5,3,10.43"/><path class="cls-2" d="M204.72,62.26c.84,19.37-11.3,35.64-27.11,36.35-8,.36-15.48-3.38-21-9.69a26.37,26.37,0,0,1-14.83,5.51c-7.84.35-15.15.44-20.83-5.86a1.84,1.84,0,0,0-3.09.5c-3.47,7.7-9.69,9.13-17,9.46C89.31,99.05,79.4,88,78.78,73.73s8.29-26.14,19.89-26.66l.86,0c1.91-8.88,8.36-15.55,16.3-15.9l1.7-.08c5.24-6.91,12.65-11.36,21-11.73a26.84,26.84,0,0,1,18.14,6.22,15.11,15.11,0,0,1,12.91-1.06,13,13,0,0,1,4.92,3,3.37,3.37,0,0,0,2.29,1C191.63,29.24,203.91,43.83,204.72,62.26Z"/><path class="cls-11" d="M139.84,159.12s9.17,8.89,20.49-1.49"/><path class="cls-9" d="M186.29,142.8c-5.12.23-9.72,6.93-9.37,14.93.24,5.47,2.39,10.14,5.37,12.48a73.61,73.61,0,0,0,10-23.5C190.47,144.21,188.83,142.69,186.29,142.8Z"/><path class="cls-12" d="M198.66,85.56a39.81,39.81,0,0,0,6.06-23.3c-.79-18.43-13.11-33-28-33.75a3.41,3.41,0,0,1-2.3-1,12.82,12.82,0,0,0-4.94-3,15.17,15.17,0,0,0-13,1.07,27,27,0,0,0-18.2-6.21,26.08,26.08,0,0,0-12.44,3.86c.08,0,15.62-7.18,30.39,7.75,0,0,13.16-5.58,17.72,3.3C174,34.3,210.32,39.93,198.66,85.56Z"/></g></svg>