<svg xmlns="http://www.w3.org/2000/svg" xmlns:xlink="http://www.w3.org/1999/xlink" viewBox="0 0 268 262.4"><defs><linearGradient id="A" x1="36.52" y1="65.77" x2="259.05" y2="215.13" xlink:href="#J"><stop offset=".37" stop-color="#3c5bdf"/><stop offset="1" stop-color="#2443a8"/></linearGradient><linearGradient id="B" x1="136.4" y1="315.49" x2="136.4" y2="45.41" xlink:href="#J"><stop offset=".11" stop-color="#090919"/><stop offset=".72" stop-color="#131330" stop-opacity="1"/></linearGradient><linearGradient id="C" x1="169.89" y1="230.96" x2="239.97" y2="109.59" xlink:href="#J"><stop offset=".51" stop-color="#090919"/><stop offset="1" stop-color="#131330"/></linearGradient><linearGradient id="D" x1="153.22" y1="235.84" x2="153.22" y2="193.13" xlink:href="#J"><stop offset="0" stop-color="#ffe7d5"/><stop offset=".3" stop-color="#ffe5d2"/><stop offset=".51" stop-color="#ffe0c9"/><stop offset=".65" stop-color="#ffd8bd"/></linearGradient><linearGradient id="E" x1="167.93" y1="203.09" x2="138.52" y2="203.09" xlink:href="#J"><stop offset="0" stop-color="#e2b79a" stop-opacity="0"/><stop offset=".46" stop-color="#e2b79a"/></linearGradient><linearGradient id="F" x1="117.105" y1="97.751" x2="188.911" y2="178.498" xlink:href="#J"><stop offset="0" stop-color="#ffe7d5"/><stop offset=".38" stop-color="#ffe3ce"/><stop offset=".88" stop-color="#ffd8bd"/></linearGradient><linearGradient id="G" x1="98.468" y1="110.933" x2="181.736" y2="101.098" xlink:href="#J"><stop offset=".3" stop-color="#e2b79a"/><stop offset="1" stop-color="#e2b79a" stop-opacity="0"/></linearGradient><linearGradient id="H" x1="77.275" y1="149.038" x2="100.05" y2="148.179" xlink:href="#J"><stop offset="0" stop-color="#ffd8bd"/><stop offset=".03" stop-color="#ffdac1"/><stop offset=".19" stop-color="#ffe2cc"/><stop offset=".4" stop-color="#ffe6d3"/><stop offset="1" stop-color="#ffe7d5"/></linearGradient><linearGradient id="I" x1="84.16" y1="54.67" x2="213.73" y2="54.67" xlink:href="#J"><stop offset=".32" stop-color="#5e7dff" stop-opacity=".4"/><stop offset=".69" stop-color="#5e7dff"/></linearGradient><linearGradient id="J" gradientUnits="userSpaceOnUse"/></defs><path d="M0 0h268v262.4H0z" fill="url(#A)"/><path d="M239.15 302.6c34.46 22-11.1 9.7-32.06 7.26-47.24-5.5-55.8 3.4-68.66 2-12.32-1.38-20.18-4.1-26-7.18-13.87-7.35-8.67-10.34-16.66-9-4 .65-11.1-.18-22.14-2.1-22-3.85-41.85-7.3-49.36-18.18-15.9-23 34.46-52.42 26.15-110.56-2.1-14.74-3.1-26.9-4.33-41.67-2.17-25.9 19.45-65 40.57-76 31.9-16.6 81.9 97.9 81.9 97.9l2.27 27.23 29.68-91.35 15.9 11.24c2.1 6.12-9.7 21.86-7.8 32.6 3.15 17.75-6.38 30.26-9.2 41-4.6 17.44-25.3 7.76-42.5 13.06-10.75 3.32 10.68 17.1 7.5 23.18-3 5.66-.8 16.35 2.6 23.65a15.2 15.2 0 0 0 .79 1.61c17.07 28.23-3.17 27.78 71.36 75.32z" fill="url(#B)"/><path d="M217.28 96.5c.3 5.1.86 12.7 1.92 21.88 3 25.73-.9 72.86 2.87 94.16 2.57 14.53 9.8 24.3 12.45 39.53l-10.62-1.3a94.08 94.08 0 0 1-21-5.05c-15-5.47-40.3-15.84-44.78-25.14-15.24-31.48 20.42-137.65 20.42-137.65z" fill="url(#C)"/><path d="M250.5 317.87H53.65v-36.9c0-39.008 31.622-70.63 70.63-70.63h55.6c39.008 0 70.63 31.622 70.63 70.63v36.9z" fill="#131330"/><path d="M121.2 210.34c.73 9.55 2.73 30.76 7.48 44.8 7.3 21.65 18.93 32.2 26 40.48 7.26-7.36 18.58-25.28 26.5-47.62 4.83-13.6 6.68-28.2 7.36-37.3-6.92-1.2-17.1-.92-33-.9-15.54.01-24.73-.3-34.34.56z" fill="#5e7dff"/><path d="M138.52 193.13h29.4a0 0 0 0 1 0 0v28a14.7 14.7 0 0 1-14.7 14.7h0a14.7 14.7 0 0 1-14.7-14.7v-28a0 0 0 0 1-.01 0z" fill="url(#D)"/><path d="M167.93 204.64c-15.43.57-28 5.2-29.4 6.27v-15.24l29.24-.4" opacity=".9" fill="url(#E)"/><path d="M88.32 146.43c.1 1.78 9.84 22.33 15.24 29.9 10.66 14.94 32.93 28 53 28.07 22.1.08 35.5-9.48 41.22-23.53 5.45-13.4 11-29.57 8.5-57.06C202.4 80.55 151 43.46 110.5 70.4c-27.77 18.46-24.44 39.47-22.17 76.04z" fill="url(#F)"/><path d="M182.66 104.42C158.1 92.85 121 117.07 101.13 131.2c5.48-3.9 14.12-35.4 13.26-42.38l62.5-5.9c.64 1.17 1.33 2.58 2 3.9 2.34 4.94 2.5 13.3 3.77 17.6z" opacity=".8" fill="url(#G)"/><path d="M154.3 89.33s-17.3 8.54-25.3 19.2c-10.64 14.16-10.53 28-31 28" fill="none" stroke="#131330" stroke-miterlimit="10" stroke-width="3"/><g fill="#131330"><ellipse cx="151.24" cy="136.5" rx="4.63" ry="4.54"/><path d="M153.5 116.36c-.23 0-.73-.06-1.1-.08s-.8 0-1.22 0l-2.47.08a31.46 31.46 0 0 0-4.85.68 23.61 23.61 0 0 0-4.56 1.57 15.59 15.59 0 0 0-3.82 2.69l-.06.06a1.48 1.48 0 0 1-2.17-2 18.77 18.77 0 0 1 4.37-3.78 26.26 26.26 0 0 1 5.15-2.35 34 34 0 0 1 5.42-1.32l2.76-.36c.46 0 .93-.08 1.4-.1s.87 0 1.52 0h0a2.51 2.51 0 0 1-.09 5z"/><ellipse cx="180.44" cy="135.18" rx="4.63" ry="4.54"/><path d="M190.25 120.55a19.34 19.34 0 0 0-7-3.88 15.66 15.66 0 0 0-3.87-.69 17 17 0 0 0-3.84.21h-.15a2.5 2.5 0 1 1-.7-5h.26a21.33 21.33 0 0 1 5 .28 19.42 19.42 0 0 1 4.71 1.41 22.4 22.4 0 0 1 7.81 5.6 1.5 1.5 0 0 1-2.13 2.12z"/></g><path d="M174.3 159c4.34-5.22-4.15-6.57-3.95-11.46" fill="none" stroke="#131330" stroke-miterlimit="10" stroke-width="3" stroke-linecap="round"/><path d="M155.44 171.26a12.76 12.76 0 0 0 2.31 1.76 13.81 13.81 0 0 0 1.32.69 11.26 11.26 0 0 0 1.39.57 17.78 17.78 0 0 0 5.88 1l1.5-.06c.5 0 1-.13 1.5-.2a25.14 25.14 0 0 0 3-.63c1-.27 1.93-.66 2.9-1l2.8-1.26h.1a1.5 1.5 0 1 1 1.24 2.73h-.06l-3.1 1.24-3.22.93a24.6 24.6 0 0 1-3.31.56l-1.7.15h-1.73a20.4 20.4 0 0 1-6.63-1.39 15.84 15.84 0 0 1-5.69-3.81 1 1 0 0 1 1.39-1.33zm61.84-74.76c-6.8.44-6.65 1.78-19.5 0-14.48-2-29.78-5.95-39.16-5-12.94 1.24-22 8.3-29.67 14.27-20.7 16.1-24.42 32.93-36.8 32.88-3.28 0-6.74-1.43-10.55-4.7C-4 60.26 190.8-43.54 217.28 96.5z" fill="#131330"/><path d="M97.3 162.65s-20-2.18-20-20.2c0-19.08 22.7-4.32 22.7-4.32" fill="url(#H)"/><path d="M137.74 163.5c-1.55 10.63-7.82 18.58-15.8 17.5s-14.65-10.76-13.1-21.4 8-18.55 16-17.47 14.44 10.73 12.9 21.36zm52.36-.05c-1.8 6.16 1 15.94 7.7 17.35a127.58 127.58 0 0 0 7.77-26.07c-4.4-3.82-12.6-1.04-15.48 8.72z" opacity=".45" fill="#5e7dff"/><path d="M84.16 48.5s98.5-39.24 129.57 33.63c0 0-13.26-58.08-75.15-54.8 0 0-26.82 1.25-54.42 21.17z" opacity=".2" fill="url(#I)"/></svg>