<svg xmlns="http://www.w3.org/2000/svg" width="20.591" height="20.384" viewBox="0 0 20.591 20.384">
  <g id="Icon_feather-settings" data-name="Icon feather-settings" transform="translate(0.75 0.75)" opacity="0.76">
    <path id="Path_133" data-name="Path 133" d="M20.374,16.937A3.437,3.437,0,1,1,16.937,13.5,3.437,3.437,0,0,1,20.374,16.937Z" transform="translate(-7.392 -7.495)" fill="none" stroke="#656565" stroke-linecap="round" stroke-linejoin="round" stroke-width="1.5"/>
    <path id="Path_134" data-name="Path 134" d="M17.467,13.517a1.4,1.4,0,0,0,.286,1.562l.052.051a1.7,1.7,0,0,1,0,2.429,1.749,1.749,0,0,1-2.456,0l-.052-.052a1.444,1.444,0,0,0-1.579-.283,1.416,1.416,0,0,0-.868,1.3v.146a1.736,1.736,0,0,1-3.471,0V18.59a1.417,1.417,0,0,0-.937-1.3,1.444,1.444,0,0,0-1.579.283l-.052.052a1.749,1.749,0,0,1-2.456,0,1.7,1.7,0,0,1,0-2.429l.052-.052a1.4,1.4,0,0,0,.286-1.562,1.432,1.432,0,0,0-1.31-.858H3.236a1.717,1.717,0,1,1,0-3.433h.078a1.431,1.431,0,0,0,1.31-.927A1.4,1.4,0,0,0,4.338,6.8l-.052-.052a1.7,1.7,0,0,1,0-2.429,1.749,1.749,0,0,1,2.456,0l.052.052a1.444,1.444,0,0,0,1.579.283h.069a1.416,1.416,0,0,0,.868-1.3V3.217a1.736,1.736,0,0,1,3.471,0v.077a1.416,1.416,0,0,0,.868,1.3,1.444,1.444,0,0,0,1.579-.283l.052-.052a1.749,1.749,0,0,1,2.456,0,1.7,1.7,0,0,1,0,2.429l-.052.052A1.4,1.4,0,0,0,17.4,8.3v.069a1.432,1.432,0,0,0,1.31.858h.148a1.717,1.717,0,1,1,0,3.433h-.078a1.432,1.432,0,0,0-1.31.858Z" transform="translate(-1.5 -1.5)" fill="none" stroke="#656565" stroke-linecap="round" stroke-linejoin="round" stroke-width="1.5"/>
  </g>
</svg>
