<svg id="Layer_1" data-name="Layer 1" xmlns="http://www.w3.org/2000/svg" viewBox="0 0 120.51 120.51"><defs><style>.cls-1,.cls-2{fill:none;stroke:#5e7dff;stroke-linecap:round;stroke-linejoin:round;}.cls-1{stroke-width:7.5px;}.cls-2{stroke-width:6px;}</style></defs><title>geometria na płaszczyźnie</title><path class="cls-1" d="M215.29,216.11l-18-18a4.24,4.24,0,0,0-7.24,3V305.67a4.24,4.24,0,0,0,4.24,4.24H298.85a4.24,4.24,0,0,0,3-7.24l-69-69" transform="translate(-186.34 -193.15)"/><path class="cls-2" d="M224.07,257.75l-5.4-5.39a.7.7,0,0,0-1.19.49v28.72a.69.69,0,0,0,.7.69H246.9a.7.7,0,0,0,.49-1.19l-23.32-23.32" transform="translate(-186.34 -193.15)"/><line class="cls-2" x1="13.36" y1="29.15" x2="6.31" y2="29.15"/><line class="cls-2" x1="13.36" y1="46.55" x2="6.31" y2="46.55"/><line class="cls-2" x1="13.36" y1="98.75" x2="6.31" y2="98.75"/><line class="cls-2" x1="13.36" y1="81.35" x2="6.31" y2="81.35"/><line class="cls-2" x1="3.75" y1="63.95" x2="13.36" y2="63.95"/></svg>