<svg id="Layer_1" data-name="Layer 1" xmlns="http://www.w3.org/2000/svg" viewBox="0 0 96.75 127"><defs><style>.cls-1,.cls-2{fill:none;stroke:#5e7dff;stroke-linecap:round;stroke-linejoin:round;}.cls-1{stroke-width:9px;}.cls-2{stroke-width:14px;}.cls-3{fill:#5e7dff;}</style></defs><title>Geometria analityczna</title><circle class="cls-1" cx="20.75" cy="34.06" r="16.25"/><line class="cls-2" x1="12.23" y1="16.24" x2="7.13" y2="7"/><path class="cls-1" d="M282,260.86a37.49,37.49,0,0,1-41.82,23.64" transform="translate(-219.45 -194)"/><path class="cls-3" d="M15.55,51h10a.35.35,0,0,1,.35.35v70.3A5.35,5.35,0,0,1,20.55,127h0a5.35,5.35,0,0,1-5.35-5.35V51.35a.35.35,0,0,1,.35-.35Z"/><path class="cls-3" d="M279,224h10a.35.35,0,0,1,.35.35v70.3A5.35,5.35,0,0,1,284,300h0a5.35,5.35,0,0,1-5.35-5.35v-70.3A.35.35,0,0,1,279,224Z" transform="translate(-312.48 152.57) rotate(-55.33)"/></svg>