<svg id="Layer_1" data-name="Layer 1" xmlns="http://www.w3.org/2000/svg" viewBox="0 0 127.76 58.19"><defs><style>.cls-1,.cls-2{fill:none;stroke:#5e7dff;stroke-miterlimit:10;stroke-width:9px;}.cls-1{stroke-linecap:round;}</style></defs><title>granica</title><path class="cls-1" d="M260.57,150l-17.39-17.39a24.59,24.59,0,0,0-34.79,0h0a24.6,24.6,0,0,0,0,34.78h0a24.59,24.59,0,0,0,34.79,0L248,163" transform="translate(-196.69 -120.9)"/><path class="cls-1" d="M274,137l4-4.39a24.58,24.58,0,0,1,34.78,0h0a24.58,24.58,0,0,1,0,34.78h0a24.58,24.58,0,0,1-34.78,0L260.57,150" transform="translate(-196.69 -120.9)"/><path class="cls-2" d="M261.78,148.78" transform="translate(-196.69 -120.9)"/><path class="cls-2" d="M261.78,125.78" transform="translate(-196.69 -120.9)"/></svg>