<svg id="Layer_1" data-name="Layer 1" xmlns="http://www.w3.org/2000/svg" viewBox="0 0 131.05 131.05"><defs><style>.cls-1,.cls-2{fill:none;stroke:#5e7dff;stroke-linecap:round;stroke-linejoin:round;}.cls-1{stroke-width:7.5px;}.cls-2{stroke-width:5px;}.cls-3{fill:#5e7dff;}</style></defs><title>liczby</title><rect class="cls-1" x="3.75" y="73.58" width="53.72" height="53.72" rx="10"/><path class="cls-1" d="M319,293.53v6.36A12.08,12.08,0,0,1,306.89,312H277.34a12.08,12.08,0,0,1-12.08-12.08V270.34a12.08,12.08,0,0,1,12.08-12.08h29.55A12.08,12.08,0,0,1,319,270.34v5.37" transform="translate(-191.68 -184.68)"/><rect class="cls-1" x="3.75" y="3.75" width="53.72" height="53.72" rx="10"/><rect class="cls-1" x="73.58" y="3.75" width="53.72" height="53.72" rx="10"/><line class="cls-2" x1="19.86" y1="29.94" x2="40.01" y2="29.94"/><line class="cls-2" x1="29.94" y1="19.86" x2="29.94" y2="40.01"/><line class="cls-2" x1="91.04" y1="30.61" x2="111.18" y2="30.61"/><circle class="cls-3" cx="101.11" cy="18.26" r="3.63"/><circle class="cls-3" cx="101.11" cy="42.96" r="3.63"/><line class="cls-2" x1="20.74" y1="100.44" x2="40.89" y2="100.44"/><circle class="cls-3" cx="100.44" cy="100.44" r="5.73"/></svg>