<svg id="Layer_1" data-name="Layer 1" xmlns="http://www.w3.org/2000/svg" viewBox="0 0 128.46 128.46"><defs><style>.cls-1{fill:none;stroke:#5e7dff;stroke-linecap:round;stroke-linejoin:round;stroke-width:7.5px;}</style></defs><title>trygonometria</title><path class="cls-1" d="M186.93,270.9l-60.66-60.84a4.54,4.54,0,0,0-7.75,3.21V325.14a4.54,4.54,0,0,0,4.54,4.54H234.93a4.54,4.54,0,0,0,3.21-7.75l-37.29-37.12" transform="translate(-114.77 -204.97)"/><polyline class="cls-1" points="4.73 94.83 33.63 94.83 33.63 123.73"/><path class="cls-1" d="M143.58,227.37a25.08,25.08,0,0,1-20.33,10.35c-2,0-1.9.43-3.75,0" transform="translate(-114.77 -204.97)"/><path class="cls-1" d="M210.73,328.7a25.39,25.39,0,0,1-.25-3.62,24.86,24.86,0,0,1,9.63-19.93" transform="translate(-114.77 -204.97)"/></svg>