<svg id="Layer_1" data-name="Layer 1" xmlns="http://www.w3.org/2000/svg" viewBox="0 0 110.67 111.5"><defs><style>.cls-1{fill:none;stroke:#5e7dff;stroke-linecap:round;stroke-linejoin:round;stroke-width:6.5px;}</style></defs><title>wymierna</title><line class="cls-1" x1="55.52" y1="4.79" x2="55.52" y2="106.54"/><line class="cls-1" x1="27.88" y1="55.66" x2="4.64" y2="55.66"/><line class="cls-1" x1="106.39" y1="55.66" x2="55.88" y2="55.66"/><path class="cls-1" d="M197.37,271.27H217.1a15,15,0,0,1,15,15V303" transform="translate(-194.12 -194.75)"/><path class="cls-1" d="M270.31,198v18.53a14.05,14.05,0,0,0,14.06,14.05H300.1" transform="translate(-194.12 -194.75)"/><polyline class="cls-1" points="24.63 4.75 31.34 11.46 38.17 4.62"/><line class="cls-1" x1="31.4" y1="18.67" x2="31.4" y2="11.46"/><line class="cls-1" x1="107.42" y1="72.43" x2="93.31" y2="86.53"/><line class="cls-1" x1="107.42" y1="86.53" x2="93.31" y2="72.43"/><line class="cls-1" x1="40.38" y1="55.75" x2="40.38" y2="55.75"/></svg>