<svg id="Layer_1" data-name="Layer 1" xmlns="http://www.w3.org/2000/svg" viewBox="0 0 129.97 128.97"><defs><style>.cls-1,.cls-2{fill:none;stroke:#5e7dff;stroke-linecap:round;stroke-linejoin:round;}.cls-1{stroke-width:7.5px;}.cls-2{stroke-width:5px;}</style></defs><title>zbiory</title><path class="cls-1" d="M409,264.61a53.8,53.8,0,0,0-47-47,5.75,5.75,0,0,0-6.42,5.7v42a5.74,5.74,0,0,0,5.74,5.74h41.95A5.75,5.75,0,0,0,409,264.61Z" transform="translate(-282.78 -213.85)"/><path class="cls-1" d="M334.27,234.29a52.5,52.5,0,1,0,57,57,4.38,4.38,0,0,0-4.35-4.76H343.39a4.36,4.36,0,0,1-4.36-4.36V238.64A4.38,4.38,0,0,0,334.27,234.29Z" transform="translate(-282.78 -213.85)"/><line class="cls-2" x1="73.98" y1="21.85" x2="108.96" y2="21.85"/><line class="cls-2" x1="73.98" y1="39.66" x2="121.38" y2="39.66"/></svg>