<svg xmlns="http://www.w3.org/2000/svg" xmlns:xlink="http://www.w3.org/1999/xlink" viewBox="0 0 638 970.8"><defs><style>.cls-1{fill:url(#linear-gradient);}.cls-2{fill:url(#linear-gradient-2);}.cls-3{fill:url(#White_Black);}.cls-4{fill:url(#linear-gradient-3);}.cls-30,.cls-4{filter:url(#luminosity-invert);}.cls-5{fill:#161630;}.cls-26,.cls-29,.cls-6{fill:none;}.cls-7{isolation:isolate;}.cls-8{fill:#eef8fb;}.cls-9{clip-path:url(#clip-path);}.cls-10{mask:url(#mask);}.cls-11{fill:#04040c;opacity:0.55;mix-blend-mode:overlay;}.cls-12{fill:#2c4ac6;}.cls-13{clip-path:url(#clip-path-2);}.cls-14{mask:url(#mask-2);}.cls-15{opacity:0.25;}.cls-16{fill:#fcbe6b;}.cls-17,.cls-23{opacity:0.2;}.cls-18{clip-path:url(#clip-path-3);}.cls-19{mask:url(#mask-3);}.cls-20{opacity:0.7;}.cls-21{clip-path:url(#clip-path-4);}.cls-22{mask:url(#mask-4);}.cls-24{fill:#c3ced1;}.cls-25{fill:#131330;}.cls-26{stroke:#fff;}.cls-26,.cls-29{stroke-linecap:round;stroke-miterlimit:10;stroke-width:3px;}.cls-27{opacity:0.1;}.cls-28{fill:#e6e6e6;}.cls-29{stroke:#633c29;opacity:0.5;}</style><linearGradient id="linear-gradient" x1="374.31" y1="298.27" x2="485.64" y2="298.27" gradientTransform="translate(-109.96 114.37)" gradientUnits="userSpaceOnUse"><stop offset="0.09" stop-color="#fff"/><stop offset="1"/></linearGradient><linearGradient id="linear-gradient-2" x1="264.75" y1="425.86" x2="326.78" y2="425.86" gradientUnits="userSpaceOnUse"><stop offset="0" stop-color="#fff"/><stop offset="1"/></linearGradient><linearGradient id="White_Black" x1="277.01" y1="254.8" x2="337.01" y2="254.8" gradientTransform="translate(85.56 110.39) scale(0.8 0.73)" xlink:href="#linear-gradient-2"/><linearGradient id="linear-gradient-3" x1="316.67" y1="205.76" x2="381.31" y2="205.76" xlink:href="#linear-gradient-2"/><clipPath id="clip-path"><path class="cls-5" d="M386.6,201c.26,48.38-4,59.45-50.27,89.62-17,11.12,94.91,57.7,106.47,100.2,27.6,101.5-166.44,78.74-166.44,78.74s-83.16,15.82-106.7-95.2c-17.06-80.49,50.16-104.54,62.62-157C261.38,94.94,386.31,146.36,386.6,201Z"/></clipPath><filter id="luminosity-invert" filterUnits="userSpaceOnUse" color-interpolation-filters="sRGB"><feColorMatrix values="-1 0 0 0 1 0 -1 0 0 1 0 0 -1 0 1 0 0 0 1 0"/></filter><mask id="mask" x="129.6" y="356.56" width="400.8" height="115.91" maskUnits="userSpaceOnUse"><g class="cls-30"><rect class="cls-1" x="271.97" y="241.36" width="112.17" height="342.56" transform="translate(740.7 84.59) rotate(90)"/></g></mask><clipPath id="clip-path-2"><path class="cls-6" d="M369.69,485,288.28,496.8c-19,0-1.24-42-3.61-71.72l-15.6-75.39c0-27.52,20.77-49.83,46.39-49.83H350.2c25.62,0,46.39,22.31,46.39,49.83l-8.32,32.91C387.34,444.81,385.13,485,369.69,485Z"/></clipPath><mask id="mask-2" x="264.75" y="366.62" width="62.03" height="118.47" maskUnits="userSpaceOnUse"><rect class="cls-2" x="264.75" y="366.62" width="62.03" height="118.47"/></mask><clipPath id="clip-path-3"><path id="SVGID" class="cls-6" d="M315.7,287.64l-.57,17.59c-.26,7.92,8.9,14.65,16.2,14.89,8.75.28,16.05-5.91,16.3-13.83l.58-17.59"/></clipPath><mask id="mask-3" x="307.37" y="285.21" width="48.7" height="20.43" maskUnits="userSpaceOnUse"><rect class="cls-3" x="307.66" y="285.99" width="48.11" height="18.88" transform="translate(9.77 -10.62) rotate(1.86)"/></mask><clipPath id="clip-path-4"><rect class="cls-6" x="284.47" y="175.37" width="93.76" height="118.12" rx="46.88"/></clipPath><mask id="mask-4" x="296.95" y="190.93" width="84.36" height="29.65" maskUnits="userSpaceOnUse"><rect class="cls-4" x="316.67" y="190.93" width="64.64" height="29.65"/></mask></defs><title>GirlEdumat-01</title><g class="cls-7"><g id="Dziewczyna"><path id="Path_314" data-name="Path 314" class="cls-8" d="M123.74,171.94c-138.71,110.2-64,257.87,2.57,376.62s148.16,124,263.67,98.37,245-259.5,184.13-419.31C534.54,123.68,262.44,61.74,123.74,171.94Z"/><g id="Włosy"><path class="cls-5" d="M386.6,200.9c.26,48.4-4,59.48-50.27,89.66-17,11.12,94.91,57.72,106.47,100.24,27.6,101.54-166.44,78.77-166.44,78.77s-83.16,15.83-106.7-95.24c-17.06-80.52,50.16-104.58,62.62-157C261.38,94.78,386.31,146.23,386.6,200.9Z"/><path class="cls-5" d="M386.6,201c.26,48.38-4,59.45-50.27,89.62-17,11.12,94.91,57.7,106.47,100.2,27.6,101.5-166.44,78.74-166.44,78.74s-83.16,15.82-106.7-95.2c-17.06-80.49,50.16-104.54,62.62-157C261.38,94.94,386.31,146.36,386.6,201Z"/><g class="cls-9"><g class="cls-10"><rect class="cls-11" x="129.6" y="357.79" width="400.8" height="114.67"/></g></g></g><g id="Ciało"><path class="cls-12" d="M371,477.9l-82.59,18.24c-19,0-1.24-42-3.61-71.72L269.2,349c0-27.52,20.77-49.83,46.39-49.83h34.74c25.62,0,45.34,22.12,45.34,49.63L385.6,380.94C374.21,455.47,386.44,477.9,371,477.9Z"/><g class="cls-13"><g class="cls-14"><path class="cls-15" d="M276.67,371.75s42,103.36,39.77,105.35c-5.79,3.19-47.27-5.68-47.27-5.68Z"/></g></g></g><g id="Glowa"><path class="cls-16" d="M315.18,286.44v17.81c0,8,9.32,14.53,16.58,14.53,8.7,0,15.76-6.51,15.76-14.53V286.44"/><g class="cls-17"><g class="cls-18"><g class="cls-19"><path d="M310.15,292.55s5.35,8.16,42.19,10.09l-.47-10.19-41.56-4.69Z"/></g></g></g><rect class="cls-16" x="284.47" y="175.37" width="93.76" height="118.12" rx="46.88"/><g class="cls-20"><g class="cls-21"><g class="cls-22"><path class="cls-23" d="M377.76,215.64a165.93,165.93,0,0,0-67,3.05C275.47,228,319,200,319,200l49.27-9.07s3.5,9.12,4.53,10.27C377.76,206.75,377.76,215.64,377.76,215.64Z"/></g></g></g><path class="cls-5" d="M378.23,205.6s-24.06-4.9-41.91,3.9c-14.38,7.09-36.72,13.77-52.81,11.31-17.82-2.72-3.29-39.6,1-41.81s36-12.79,36-12.79L371.61,179l9.7,29Z"/></g><g id="Buty"><path class="cls-24" d="M267.71,786.55c-2.44,4.32-10.6,21.73,6.19,36.64a7.89,7.89,0,0,0,7.81,1.56c7.88-2.74,22.23-12,10.29-42-14.27-35.87-22-5.12-23.43,1.58A7.87,7.87,0,0,1,267.71,786.55Z"/><path class="cls-24" d="M363.42,786.73s23.89-7.31,39.79,0c21.18,9.74,26,25.94-18.34,25.57-9.84-.08-11.09,0-14.82,0-3.42,0-9.45-2.1-11.26-6.19-3-6.91-.49-20,3.21-25.21C366.22,774.92,363.42,786.73,363.42,786.73Z"/></g><g id="Nogi"><path class="cls-25" d="M378.85,470.47S389.2,488.8,393,543.36c3.18,46.12-6.94,193.91-9.09,234.47a10.8,10.8,0,0,1-10.64,10.39H363.08c-5.37,0-7.21-4.32-7.88-9.82L332.83,599.21c-.24-2-17,81-17.34,83L298,778c-.91,5-3.67,8.81-8.65,9l-17.64.67c-5.79.22-8.77-4.71-9.12-10.67-3-51.93-16.42-275.88,9-306.53,0,0,13.64,7.46,54.4,7.46S378.85,470.47,378.85,470.47Z"/><path class="cls-26" d="M333,609.4s0-62.51,31.44-71.13"/></g><path id="cień" class="cls-27" d="M355.49,369.15s16.39,61.71,35,61.65c29.65-.1-.48-73-.48-73S370.56,368.67,355.49,369.15Z"/><g id="Telefon"><path class="cls-24" d="M401,316.5l-4.14-4.24a2.85,2.85,0,0,0-2-.9l-22.2-.48s-5.33-.86-7.75,7.43a5.26,5.26,0,0,1-.15.53L346.6,364.65a2.89,2.89,0,0,0,.83,3.28l4.82,4.13c.75-1.4,4.83-.69,5.55-.71a131.14,131.14,0,0,0,15.26-1.77c.37-.3,27.22-53.3,27.22-53.3"/><path class="cls-28" d="M379,372.75l-25.64-.45a3,3,0,0,1-2.73-4.06L370.33,317a3,3,0,0,1,2.84-1.91l25.64.44a3,3,0,0,1,2.74,4.06l-19.69,51.29A3,3,0,0,1,379,372.75Z"/></g><g id="Ręka2"><path class="cls-16" d="M393.7,363.9s4.23-19,1.39-27c-1.28-3.63-7.06,2.61-8.82.35-13.22-17-21.14-6.91-23.12,2.89-1.2,6,11.37,22.74,14.75,30.51C386.84,391.16,393.7,363.9,393.7,363.9Z"/><path class="cls-12" d="M378,368.2a3,3,0,0,0-2.71,2.81c-.55,12.39-1.53,64.08,20.07,62,25.14-2.4,7.79-53.72,2.09-68.87a2.93,2.93,0,0,0-4.54-1.3C390.16,364.94,385.41,367.5,378,368.2Z"/></g><g id="Ręka1"><path class="cls-12" d="M305.81,300.43s-33.92,102.24-34.13,118.24S296,501.1,296,501.1s-.22,8.69-11.09,12S253.41,463,248.53,446.4c-7.16-24.42-3.51-54.62,1.6-79.73A170.44,170.44,0,0,1,268,318.78C269.4,316,286.67,300.33,305.81,300.43Z"/><path class="cls-26" d="M295.36,497c3,4.74.79,10.13-3.74,13.63-4.8,3.71-11.71,4.1-15.42-.71"/></g><g id="Ucho"><g id="Ucho-2" data-name="Ucho"><path class="cls-16" d="M279.16,221.22a11.24,11.24,0,0,0,0,22.48h6.11V221.22Z"/></g><line id="Ucho-3" data-name="Ucho" class="cls-29" x1="276.6" y1="232.29" x2="280.76" y2="232.29"/></g><path class="cls-5" d="M378.23,205.6s-24.06-4.9-41.91,3.9c-14.38,7.09-36.72,13.77-52.81,11.31-17.82-2.72-3.29-39.6,1-41.81s36-12.79,36-12.79L371.61,179l9.7,29Z"/></g></g></svg>